<?xml version="1.0" encoding="UTF-8" ?>
<!DOCTYPE svg PUBLIC "-//W3C//DTD SVG 1.1//EN" "http://www.w3.org/Graphics/SVG/1.1/DTD/svg11.dtd">
<svg width="152pt" height="240pt" viewBox="0 0 152 240" version="1.1" xmlns="http://www.w3.org/2000/svg">
<g id="#efefefff">
<path fill="#efefef" opacity="1.00" d=" M 0.00 0.00 L 3.31 0.00 C 3.10 5.41 2.83 10.83 2.40 16.23 C 2.29 10.90 2.33 5.55 1.74 0.25 C 0.63 6.77 1.03 13.41 1.00 20.00 C 1.00 68.00 1.00 116.00 1.00 164.00 C 0.97 171.61 1.54 179.30 0.00 186.82 L 0.00 0.00 Z" />
</g>
<g id="#010000ff">
<path fill="#010000" opacity="1.00" d=" M 3.31 0.00 L 5.26 0.00 C 8.91 0.98 12.69 1.02 16.34 0.00 L 18.67 0.00 C 23.06 0.85 27.50 1.60 32.00 1.44 C 41.13 1.11 50.39 2.22 59.38 0.00 L 62.46 0.00 C 67.90 1.17 73.45 1.67 79.00 1.40 C 89.52 0.88 100.18 2.47 110.55 0.00 L 112.84 0.00 C 112.55 0.45 111.97 1.36 111.68 1.81 C 107.69 7.39 106.40 14.24 105.85 20.93 C 113.57 20.05 121.76 18.99 128.18 14.22 C 132.44 11.16 135.09 6.49 137.45 1.93 C 134.14 1.87 130.66 1.22 127.45 2.29 C 124.34 4.18 122.39 7.37 119.92 9.95 C 117.69 12.50 114.84 14.40 111.95 16.10 C 115.73 11.21 120.40 7.10 124.34 2.34 C 124.99 1.56 125.65 0.78 126.31 0.00 L 140.13 0.00 C 144.07 0.67 148.02 1.26 152.00 1.59 L 152.00 240.00 L 42.53 240.00 C 42.68 239.59 42.98 238.77 43.13 238.35 C 44.04 235.00 45.43 231.27 43.94 227.87 C 42.39 224.32 40.25 221.08 38.49 217.63 C 44.14 217.14 50.21 217.90 55.47 215.39 C 61.29 211.85 65.16 206.02 69.05 200.59 C 64.59 199.82 60.15 198.89 55.64 198.55 C 49.19 198.03 42.93 200.06 36.64 201.11 C 39.38 196.31 43.20 191.73 43.62 185.99 C 44.14 179.91 43.60 173.81 43.42 167.74 C 37.96 171.04 32.78 174.80 27.87 178.88 C 25.37 181.01 22.90 183.44 21.80 186.62 C 20.52 190.29 20.07 194.23 18.41 197.78 C 15.91 195.89 13.72 193.59 11.06 191.91 C 8.38 190.22 5.24 189.56 2.22 188.76 C 2.27 190.72 2.33 192.68 2.39 194.64 C 10.05 199.33 17.86 203.85 24.73 209.67 C 25.95 204.73 27.27 199.80 29.17 195.08 C 31.79 188.63 34.48 182.09 38.83 176.58 C 36.61 183.75 32.58 190.17 30.07 197.22 C 28.48 201.46 27.46 205.88 26.57 210.31 C 32.84 209.85 39.11 209.00 45.19 207.37 C 49.79 206.11 54.48 205.02 59.27 205.05 C 49.08 209.54 37.85 210.44 27.01 212.35 C 31.51 220.42 36.26 228.52 38.11 237.70 L 37.28 237.60 C 35.14 233.01 33.62 228.16 31.35 223.64 C 29.58 219.99 27.31 216.62 25.02 213.29 C 22.12 215.62 19.22 217.96 16.56 220.57 C 11.90 225.08 8.14 230.43 3.47 234.95 C 7.60 224.95 16.99 218.90 24.11 211.25 C 17.47 205.56 10.17 200.67 2.32 196.79 C 2.22 201.50 2.22 206.21 2.28 210.93 C 5.96 211.80 9.65 212.64 13.33 213.51 C 10.96 215.76 8.47 217.89 6.13 220.17 C 4.46 221.83 2.73 223.72 2.45 226.17 C 1.85 230.40 2.20 234.68 2.30 238.94 C 6.42 238.04 10.84 237.68 14.50 235.41 C 18.03 232.55 19.61 228.09 21.90 224.29 C 24.36 229.09 26.40 234.17 29.68 238.51 C 30.18 238.88 31.20 239.63 31.71 240.00 L 1.36 240.00 C 1.04 235.83 0.53 231.68 0.00 227.53 L 0.00 223.58 C 0.98 219.68 1.00 215.62 0.00 211.72 L 0.00 210.21 C 1.19 204.95 1.13 199.52 0.00 194.25 L 0.00 193.23 C 2.40 192.80 2.41 189.20 0.00 188.78 L 0.00 186.82 C 1.54 179.30 0.97 171.61 1.00 164.00 C 1.00 116.00 1.00 68.00 1.00 20.00 C 1.03 13.41 0.63 6.77 1.74 0.25 C 2.33 5.55 2.29 10.90 2.40 16.23 C 2.83 10.83 3.10 5.41 3.31 0.00 M 5.94 1.92 C 5.36 8.61 4.84 15.30 4.58 22.01 C 4.59 26.08 4.49 30.56 6.95 34.04 C 9.43 37.49 12.88 40.06 16.17 42.69 C 18.63 38.79 21.26 34.73 21.70 30.02 C 22.18 24.87 21.55 19.68 21.99 14.52 C 24.06 16.72 25.84 19.17 27.38 21.77 C 30.59 21.79 33.79 21.76 37.00 21.72 C 30.62 14.92 24.43 7.90 17.44 1.70 C 16.63 4.31 15.83 6.93 14.97 9.53 C 14.88 6.97 14.85 4.40 14.83 1.84 C 11.86 1.86 8.90 1.88 5.94 1.92 M 20.87 2.02 C 25.27 7.30 30.37 11.93 34.96 17.05 C 36.40 18.55 37.78 20.18 39.60 21.24 C 42.34 22.03 45.25 21.69 48.06 21.73 C 46.77 19.19 45.62 16.49 43.64 14.38 C 41.89 12.66 39.66 11.58 37.56 10.36 C 37.42 9.88 37.14 8.92 37.00 8.44 C 41.95 8.12 47.00 8.11 51.79 6.67 C 54.24 6.00 55.90 3.96 57.60 2.22 C 45.38 1.53 33.11 1.88 20.87 2.02 M 53.64 8.71 C 50.58 9.76 47.34 10.12 44.16 10.62 C 46.90 13.90 49.18 17.56 50.66 21.58 C 59.78 21.85 68.91 21.42 78.03 21.86 C 78.17 28.58 78.07 35.31 78.30 42.03 C 78.68 55.34 80.21 68.58 82.03 81.76 C 85.79 78.78 90.15 76.70 94.76 75.41 C 90.92 73.07 86.59 70.66 84.82 66.27 C 82.16 59.72 82.78 52.49 82.70 45.58 C 88.00 45.83 93.49 46.27 98.29 48.77 C 102.46 50.79 105.39 54.51 108.37 57.93 C 109.62 53.98 110.81 49.81 113.66 46.68 C 116.84 43.17 120.76 40.43 124.00 36.99 C 126.41 34.40 128.99 31.96 131.96 30.03 C 134.29 36.75 136.00 43.86 135.49 51.02 C 135.12 56.41 132.59 61.27 130.66 66.22 C 134.03 65.83 137.43 64.94 140.83 65.44 C 144.30 66.21 147.51 67.80 150.81 69.06 C 150.78 46.69 150.77 24.32 150.82 1.94 C 147.32 1.84 143.83 1.81 140.34 1.96 C 137.40 8.59 133.22 15.23 126.46 18.46 C 119.22 21.87 111.20 23.23 103.29 24.04 C 102.71 16.33 104.86 8.81 108.00 1.85 C 96.67 1.91 85.34 1.87 74.01 1.88 C 70.09 1.93 66.13 1.40 62.25 2.09 C 59.16 4.00 57.18 7.48 53.64 8.71 M 24.73 22.76 C 24.57 26.93 24.66 31.23 23.14 35.19 C 21.56 39.25 19.58 43.20 16.91 46.65 C 12.72 44.12 9.25 40.58 5.93 37.03 C 3.54 34.60 2.87 31.17 2.22 27.97 C 2.29 61.75 2.17 95.54 2.27 129.33 C 6.65 127.83 10.73 125.55 15.14 124.15 C 19.52 122.76 24.14 123.70 28.49 124.67 C 28.65 121.12 28.68 117.42 30.19 114.12 C 31.26 111.59 32.95 109.34 33.82 106.73 C 34.13 104.78 33.83 102.80 33.64 100.86 C 31.20 82.65 29.78 64.32 28.87 45.98 C 28.49 40.33 28.75 34.65 28.21 29.01 C 28.02 26.50 26.11 24.69 24.73 22.76 M 31.10 24.27 C 31.04 36.85 31.10 49.45 32.50 61.96 C 33.15 73.24 34.03 84.52 35.60 95.71 C 37.01 105.22 37.83 114.83 39.88 124.24 C 41.84 133.24 43.25 142.38 45.77 151.25 C 49.03 162.84 52.47 174.44 57.54 185.38 C 58.43 186.82 59.04 189.13 61.08 189.21 C 65.05 189.64 69.06 189.23 73.04 189.05 C 87.43 188.01 101.88 188.67 116.28 187.76 C 113.94 184.12 111.40 180.61 109.02 176.99 C 102.19 166.42 97.20 154.80 92.96 142.99 C 84.30 117.93 79.77 91.62 77.29 65.28 C 75.77 51.69 75.48 37.98 75.68 24.31 C 60.82 24.36 45.96 24.43 31.10 24.27 M 117.75 46.76 C 114.93 49.42 112.60 52.72 111.80 56.57 C 111.00 58.91 111.05 61.81 109.06 63.55 C 105.63 59.78 103.21 55.00 98.81 52.21 C 94.95 49.59 90.21 48.97 85.69 48.45 C 85.63 54.13 84.79 60.28 87.50 65.52 C 90.11 70.44 95.64 72.32 100.03 75.22 C 99.83 75.52 99.45 76.10 99.26 76.40 C 94.23 78.48 88.27 79.10 84.41 83.35 C 82.31 85.30 83.19 88.41 82.99 90.93 C 92.77 86.53 102.88 82.95 113.17 79.93 C 110.17 75.33 106.64 71.11 102.80 67.19 C 98.59 62.65 93.68 58.74 90.01 53.71 C 99.69 59.73 106.45 69.17 113.97 77.51 C 116.11 70.81 117.86 63.99 120.35 57.40 C 122.29 52.35 123.50 46.88 126.90 42.53 C 126.36 45.86 125.46 49.12 124.24 52.27 C 120.93 61.10 117.34 69.91 115.72 79.25 C 126.34 78.70 136.80 75.96 147.46 76.43 C 145.74 77.11 144.02 77.85 142.17 78.05 C 133.66 78.98 125.16 79.89 116.68 81.08 C 121.43 89.86 129.76 95.90 134.93 104.37 C 126.30 99.11 121.78 89.59 114.61 82.77 C 112.43 91.08 110.92 99.54 108.85 107.87 C 108.50 109.66 107.31 111.07 106.26 112.49 C 106.53 106.82 108.48 101.44 109.90 95.99 C 111.17 91.33 112.27 86.63 113.11 81.88 C 105.84 83.59 98.81 86.17 91.84 88.83 C 89.00 89.98 86.04 91.08 83.73 93.16 C 83.82 94.45 83.80 96.14 85.21 96.76 C 88.52 98.47 92.63 98.40 95.99 96.84 C 99.02 95.49 101.92 93.88 104.98 92.61 C 103.46 96.47 101.12 100.05 100.36 104.17 C 99.96 108.99 102.90 113.16 105.20 117.12 C 108.48 114.82 111.88 112.57 114.50 109.49 C 117.45 106.12 116.67 101.27 117.30 97.16 C 120.55 99.40 123.00 102.50 125.64 105.37 C 128.53 108.65 133.21 108.60 137.20 109.10 C 137.40 103.99 137.81 98.67 136.12 93.75 C 135.25 90.78 131.80 90.38 129.36 89.33 C 129.28 88.86 129.12 87.90 129.04 87.43 C 133.09 87.05 137.19 86.92 141.18 86.03 C 144.49 85.28 147.30 83.06 149.33 80.40 C 151.12 78.08 150.70 74.97 151.00 72.24 C 147.32 70.72 143.73 68.70 139.72 68.27 C 134.96 68.26 130.47 70.15 125.84 71.01 C 127.40 65.83 130.21 61.16 131.93 56.05 C 133.91 49.06 132.84 41.61 130.95 34.72 C 126.37 38.54 122.06 42.65 117.75 46.76 M 144.83 87.74 C 142.52 88.93 139.87 89.16 137.34 89.63 C 140.62 96.47 140.31 104.23 140.36 111.62 C 135.94 111.61 131.32 111.63 127.20 109.81 C 124.10 108.35 121.96 105.57 119.70 103.11 C 119.02 105.99 118.62 109.21 116.41 111.40 C 112.88 115.02 108.71 117.92 104.80 121.10 C 101.86 117.06 98.93 112.78 97.96 107.78 C 97.32 104.65 98.26 101.52 98.95 98.49 C 94.52 100.46 89.67 100.91 84.90 100.28 C 88.46 120.06 93.36 139.72 101.67 158.09 C 101.75 154.22 101.82 150.35 101.96 146.49 C 107.42 147.82 112.70 150.29 116.73 154.28 C 119.29 156.77 120.18 160.35 121.23 163.64 C 126.83 160.38 132.93 158.14 138.95 155.82 C 139.75 159.85 140.58 163.98 140.05 168.10 C 139.71 170.54 138.49 172.71 137.38 174.87 C 142.18 174.78 147.01 175.72 150.92 178.67 C 150.68 146.83 150.77 114.98 150.87 83.13 C 148.94 84.76 147.06 86.51 144.83 87.74 M 31.20 128.63 C 27.34 127.18 23.27 125.87 19.08 126.28 C 13.99 126.62 9.53 129.32 5.27 131.89 C 7.92 136.03 10.76 140.44 15.30 142.72 C 18.90 144.45 22.91 144.98 26.77 145.87 C 22.80 149.48 17.80 152.45 15.52 157.51 C 13.83 162.47 14.87 167.80 15.05 172.90 C 20.85 170.39 26.95 168.02 31.57 163.55 C 34.81 160.43 36.48 156.16 38.99 152.51 C 39.30 152.74 39.92 153.21 40.23 153.45 C 41.09 156.45 40.85 159.79 42.56 162.51 C 44.52 165.89 46.43 169.31 48.64 172.54 C 47.85 166.45 45.51 160.74 44.06 154.81 C 42.99 150.33 41.42 145.99 39.27 141.91 C 36.83 143.90 34.38 145.88 31.87 147.77 C 33.76 145.14 35.75 142.60 37.79 140.09 C 33.51 138.24 29.14 136.40 24.47 135.81 C 20.44 135.27 16.33 134.88 12.51 133.35 C 21.46 132.07 30.11 135.07 38.36 138.15 C 38.91 128.92 36.34 119.95 34.66 110.96 C 31.19 116.20 31.10 122.58 31.20 128.63 M 2.17 131.98 C 2.36 149.90 2.13 167.83 2.29 185.76 C 7.54 186.94 12.45 189.22 16.96 192.14 C 18.45 188.12 19.65 183.84 22.39 180.45 C 27.39 174.64 34.81 171.50 39.77 165.71 C 39.68 163.46 39.17 161.25 38.79 159.04 C 35.74 162.56 32.88 166.36 29.00 169.03 C 23.94 172.55 18.19 175.05 12.20 176.50 C 12.14 172.65 12.06 168.80 11.91 164.96 C 11.83 161.79 11.78 158.40 13.42 155.57 C 15.17 152.46 17.76 149.94 20.15 147.33 C 17.15 146.33 13.97 145.52 11.43 143.55 C 7.47 140.48 4.86 136.11 2.17 131.98 M 104.52 149.93 C 104.30 155.15 102.72 160.81 105.33 165.70 C 108.26 171.49 111.78 176.99 115.79 182.10 C 114.81 173.92 110.94 166.57 108.92 158.68 C 114.46 165.51 116.00 174.53 117.45 182.96 C 120.64 179.96 123.84 176.95 126.49 173.46 C 128.67 170.60 130.73 167.63 133.15 164.96 C 131.26 173.01 124.22 178.01 119.07 183.93 C 124.72 184.62 130.41 184.81 136.09 185.13 C 141.15 185.39 146.07 186.67 150.98 187.83 C 150.69 185.87 150.90 183.73 149.97 181.92 C 148.32 179.72 145.73 178.19 142.98 177.88 C 138.84 177.43 134.66 177.79 130.50 177.75 C 132.70 175.15 135.50 172.92 136.98 169.79 C 137.79 166.49 137.24 163.06 137.06 159.71 C 132.91 161.14 128.45 162.21 124.92 164.93 C 122.82 167.27 121.30 170.06 119.40 172.55 C 118.65 168.29 118.73 163.84 117.21 159.75 C 114.85 154.61 109.36 152.17 104.52 149.93 M 46.25 173.08 C 46.37 177.40 46.76 181.73 46.39 186.05 C 46.05 190.00 43.96 193.46 42.22 196.92 C 46.42 196.05 50.72 195.15 55.02 195.81 C 61.11 196.72 67.21 197.47 73.29 198.45 C 70.74 204.13 66.59 208.88 62.35 213.36 C 59.65 216.00 56.62 218.74 52.76 219.39 C 49.31 219.96 45.81 220.00 42.32 220.13 C 44.29 222.89 46.48 225.66 47.26 229.03 C 47.62 232.31 46.57 235.53 46.08 238.75 C 80.98 238.61 115.87 238.67 150.77 238.72 C 150.81 224.40 150.81 210.08 150.77 195.77 C 146.23 196.39 141.67 196.98 137.09 197.14 C 139.59 201.65 141.93 206.70 141.06 212.00 C 140.14 217.01 138.32 221.82 137.62 226.89 C 131.84 224.66 127.01 220.59 122.80 216.13 C 120.36 213.63 119.10 210.32 117.97 207.09 C 116.53 209.25 115.16 211.49 113.38 213.40 C 111.30 215.57 108.37 216.59 105.62 217.63 C 100.38 219.41 95.16 221.29 89.76 222.50 C 89.58 216.61 90.10 210.62 92.11 205.06 C 93.65 200.77 96.74 197.35 99.33 193.69 C 95.27 193.61 91.12 193.88 87.17 192.72 C 77.49 189.82 67.29 193.30 57.52 191.48 C 54.92 187.71 53.83 183.17 51.75 179.13 C 50.51 176.64 48.23 174.95 46.25 173.08 M 119.10 185.93 C 124.73 196.01 131.42 205.95 133.65 217.46 C 130.12 213.40 129.12 207.98 126.73 203.29 C 124.85 199.55 123.10 195.70 120.65 192.29 C 119.66 190.34 117.16 190.36 115.33 190.87 C 112.61 193.79 111.01 197.52 108.76 200.78 C 105.41 205.67 101.83 210.59 96.93 214.04 C 98.42 210.99 100.49 208.29 102.79 205.81 C 106.86 201.37 110.27 196.31 112.53 190.71 C 110.43 190.78 108.31 190.70 106.24 191.15 C 104.35 192.21 102.97 193.94 101.55 195.54 C 98.96 198.68 96.26 201.87 94.81 205.73 C 93.25 209.82 92.92 214.23 92.59 218.55 C 98.74 217.33 104.93 215.59 110.30 212.27 C 115.32 208.83 115.58 202.06 119.13 197.48 C 120.16 202.34 120.29 207.61 123.08 211.90 C 126.06 216.52 130.66 219.74 135.15 222.75 C 137.05 217.76 139.09 212.47 138.20 207.03 C 137.38 201.86 133.56 197.98 130.78 193.77 C 137.45 193.85 144.19 194.27 150.74 192.71 C 150.73 191.62 150.71 190.53 150.68 189.44 C 140.41 186.49 129.67 186.68 119.10 185.93 M 2.26 213.29 C 2.22 215.80 2.16 218.31 2.07 220.83 C 3.94 218.71 5.88 216.65 7.83 214.61 C 5.96 214.19 4.11 213.74 2.26 213.29 M 21.76 230.34 C 20.03 233.50 17.82 236.37 15.20 238.84 C 19.05 238.68 22.90 238.67 26.75 238.75 C 25.02 235.99 23.37 233.18 21.76 230.34 Z" />
</g>
<g id="#612b19ff">
<path fill="#612b19" opacity="1.00" d=" M 5.26 0.00 L 16.34 0.00 C 12.69 1.02 8.91 0.98 5.26 0.00 Z" />
</g>
<g id="#642d1aff">
<path fill="#642d1a" opacity="1.00" d=" M 18.67 0.00 L 59.38 0.00 C 50.39 2.22 41.13 1.11 32.00 1.44 C 27.50 1.60 23.06 0.85 18.67 0.00 Z" />
</g>
<g id="#767676ff">
<path fill="#767676" opacity="1.00" d=" M 62.46 0.00 L 110.55 0.00 C 100.18 2.47 89.52 0.88 79.00 1.40 C 73.45 1.67 67.90 1.17 62.46 0.00 Z" />
</g>
<g id="#232323ff">
<path fill="#232323" opacity="1.00" d=" M 112.84 0.00 L 113.72 0.00 C 116.69 0.07 119.66 0.06 122.63 0.00 L 126.31 0.00 C 125.65 0.78 124.99 1.56 124.34 2.34 C 120.12 2.13 115.90 1.96 111.68 1.81 C 111.97 1.36 112.55 0.45 112.84 0.00 Z" />
</g>
<g id="#3c3c3cff">
<path fill="#3c3c3c" opacity="1.00" d=" M 113.72 0.00 L 122.63 0.00 C 119.66 0.06 116.69 0.07 113.72 0.00 Z" />
</g>
<g id="#777777ff">
<path fill="#777777" opacity="1.00" d=" M 140.13 0.00 L 152.00 0.00 L 152.00 1.59 C 148.02 1.26 144.07 0.67 140.13 0.00 Z" />
</g>
<g id="#d96038ff">
<path fill="#d96038" opacity="1.00" d=" M 5.94 1.92 C 8.90 1.88 11.86 1.86 14.83 1.84 C 14.85 4.40 14.88 6.97 14.97 9.53 C 15.83 6.93 16.63 4.31 17.44 1.70 C 24.43 7.90 30.62 14.92 37.00 21.72 C 33.79 21.76 30.59 21.79 27.38 21.77 C 25.84 19.17 24.06 16.72 21.99 14.52 C 21.55 19.68 22.18 24.87 21.70 30.02 C 21.26 34.73 18.63 38.79 16.17 42.69 C 12.88 40.06 9.43 37.49 6.95 34.04 C 4.49 30.56 4.59 26.08 4.58 22.01 C 4.84 15.30 5.36 8.61 5.94 1.92 M 14.84 34.56 C 15.25 26.48 15.38 18.36 14.89 10.29 C 12.91 18.17 12.88 26.66 14.84 34.56 Z" />
<path fill="#d96038" opacity="1.00" d=" M 20.87 2.02 C 33.11 1.88 45.38 1.53 57.60 2.22 C 55.90 3.96 54.24 6.00 51.79 6.67 C 47.00 8.11 41.95 8.12 37.00 8.44 C 37.14 8.92 37.42 9.88 37.56 10.36 C 39.66 11.58 41.89 12.66 43.64 14.38 C 45.62 16.49 46.77 19.19 48.06 21.73 C 45.25 21.69 42.34 22.03 39.60 21.24 C 37.78 20.18 36.40 18.55 34.96 17.05 C 30.37 11.93 25.27 7.30 20.87 2.02 Z" />
<path fill="#d96038" opacity="1.00" d=" M 117.75 46.76 C 122.06 42.65 126.37 38.54 130.95 34.72 C 132.84 41.61 133.91 49.06 131.93 56.05 C 130.21 61.16 127.40 65.83 125.84 71.01 C 130.47 70.15 134.96 68.26 139.72 68.27 C 143.73 68.70 147.32 70.72 151.00 72.24 C 150.70 74.97 151.12 78.08 149.33 80.40 C 147.30 83.06 144.49 85.28 141.18 86.03 C 137.19 86.92 133.09 87.05 129.04 87.43 C 129.12 87.90 129.28 88.86 129.36 89.33 C 131.80 90.38 135.25 90.78 136.12 93.75 C 137.81 98.67 137.40 103.99 137.20 109.10 C 133.21 108.60 128.53 108.65 125.64 105.37 C 123.00 102.50 120.55 99.40 117.30 97.16 C 116.67 101.27 117.45 106.12 114.50 109.49 C 111.88 112.57 108.48 114.82 105.20 117.12 C 102.90 113.16 99.96 108.99 100.36 104.17 C 101.12 100.05 103.46 96.47 104.98 92.61 C 101.92 93.88 99.02 95.49 95.99 96.84 C 92.63 98.40 88.52 98.47 85.21 96.76 C 83.80 96.14 83.82 94.45 83.73 93.16 C 86.04 91.08 89.00 89.98 91.84 88.83 C 98.81 86.17 105.84 83.59 113.11 81.88 C 112.27 86.63 111.17 91.33 109.90 95.99 C 108.48 101.44 106.53 106.82 106.26 112.49 C 107.31 111.07 108.50 109.66 108.85 107.87 C 110.92 99.54 112.43 91.08 114.61 82.77 C 121.78 89.59 126.30 99.11 134.93 104.37 C 129.76 95.90 121.43 89.86 116.68 81.08 C 125.16 79.89 133.66 78.98 142.17 78.05 C 144.02 77.85 145.74 77.11 147.46 76.43 C 136.80 75.96 126.34 78.70 115.72 79.25 C 117.34 69.91 120.93 61.10 124.24 52.27 C 125.46 49.12 126.36 45.86 126.90 42.53 C 123.50 46.88 122.29 52.35 120.35 57.40 C 117.86 63.99 116.11 70.81 113.97 77.51 C 106.45 69.17 99.69 59.73 90.01 53.71 C 93.68 58.74 98.59 62.65 102.80 67.19 C 106.64 71.11 110.17 75.33 113.17 79.93 C 102.88 82.95 92.77 86.53 82.99 90.93 C 83.19 88.41 82.31 85.30 84.41 83.35 C 88.27 79.10 94.23 78.48 99.26 76.40 C 99.45 76.10 99.83 75.52 100.03 75.22 C 95.64 72.32 90.11 70.44 87.50 65.52 C 84.79 60.28 85.63 54.13 85.69 48.45 C 90.21 48.97 94.95 49.59 98.81 52.21 C 103.21 55.00 105.63 59.78 109.06 63.55 C 111.05 61.81 111.00 58.91 111.80 56.57 C 112.60 52.72 114.93 49.42 117.75 46.76 Z" />
<path fill="#d96038" opacity="1.00" d=" M 27.87 178.88 C 32.78 174.80 37.96 171.04 43.42 167.74 C 43.60 173.81 44.14 179.91 43.62 185.99 C 43.20 191.73 39.38 196.31 36.64 201.11 C 42.93 200.06 49.19 198.03 55.64 198.55 C 60.15 198.89 64.59 199.82 69.05 200.59 C 65.16 206.02 61.29 211.85 55.47 215.39 C 50.21 217.90 44.14 217.14 38.49 217.63 C 40.25 221.08 42.39 224.32 43.94 227.87 C 45.43 231.27 44.04 235.00 43.13 238.35 C 41.46 238.14 39.78 237.91 38.11 237.70 C 36.26 228.52 31.51 220.42 27.01 212.35 C 37.85 210.44 49.08 209.54 59.27 205.05 C 54.48 205.02 49.79 206.11 45.19 207.37 C 39.11 209.00 32.84 209.85 26.57 210.31 C 27.46 205.88 28.48 201.46 30.07 197.22 C 32.58 190.17 36.61 183.75 38.83 176.58 C 34.48 182.09 31.79 188.63 29.17 195.08 C 27.27 199.80 25.95 204.73 24.73 209.67 C 17.86 203.85 10.05 199.33 2.39 194.64 C 2.33 192.68 2.27 190.72 2.22 188.76 C 5.24 189.56 8.38 190.22 11.06 191.91 C 13.72 193.59 15.91 195.89 18.41 197.78 C 20.07 194.23 20.52 190.29 21.80 186.62 C 22.90 183.44 25.37 181.01 27.87 178.88 Z" />
<path fill="#d96038" opacity="1.00" d=" M 2.32 196.79 C 10.17 200.67 17.47 205.56 24.11 211.25 C 16.99 218.90 7.60 224.95 3.47 234.95 C 8.14 230.43 11.90 225.08 16.56 220.57 C 19.22 217.96 22.12 215.62 25.02 213.29 C 27.31 216.62 29.58 219.99 31.35 223.64 C 33.62 228.16 35.14 233.01 37.28 237.60 C 34.74 237.82 32.20 238.14 29.68 238.51 C 26.40 234.17 24.36 229.09 21.90 224.29 C 19.61 228.09 18.03 232.55 14.50 235.41 C 10.84 237.68 6.42 238.04 2.30 238.94 C 2.20 234.68 1.85 230.40 2.45 226.17 C 2.73 223.72 4.46 221.83 6.13 220.17 C 8.47 217.89 10.96 215.76 13.33 213.51 C 9.65 212.64 5.96 211.80 2.28 210.93 C 2.22 206.21 2.22 201.50 2.32 196.79 Z" />
</g>
<g id="#ffffffff">
<path fill="#ffffff" opacity="1.00" d=" M 53.64 8.71 C 57.18 7.48 59.16 4.00 62.25 2.09 C 66.13 1.40 70.09 1.93 74.01 1.88 C 85.34 1.87 96.67 1.91 108.00 1.85 C 104.86 8.81 102.71 16.33 103.29 24.04 C 111.20 23.23 119.22 21.87 126.46 18.46 C 133.22 15.23 137.40 8.59 140.34 1.96 C 143.83 1.81 147.32 1.84 150.82 1.94 C 150.77 24.32 150.78 46.69 150.81 69.06 C 147.51 67.80 144.30 66.21 140.83 65.44 C 137.43 64.94 134.03 65.83 130.66 66.22 C 132.59 61.27 135.12 56.41 135.49 51.02 C 136.00 43.86 134.29 36.75 131.96 30.03 C 128.99 31.96 126.41 34.40 124.00 36.99 C 120.76 40.43 116.84 43.17 113.66 46.68 C 110.81 49.81 109.62 53.98 108.37 57.93 C 105.39 54.51 102.46 50.79 98.29 48.77 C 93.49 46.27 88.00 45.83 82.70 45.58 C 82.78 52.49 82.16 59.72 84.82 66.27 C 86.59 70.66 90.92 73.07 94.76 75.41 C 90.15 76.70 85.79 78.78 82.03 81.76 C 80.21 68.58 78.68 55.34 78.30 42.03 C 78.07 35.31 78.17 28.58 78.03 21.86 C 68.91 21.42 59.78 21.85 50.66 21.58 C 49.18 17.56 46.90 13.90 44.16 10.62 C 47.34 10.12 50.58 9.76 53.64 8.71 M 85.55 7.63 C 87.12 8.04 88.70 8.43 90.29 8.79 C 89.76 7.26 89.31 5.70 88.67 4.20 C 86.96 4.51 86.49 6.42 85.55 7.63 M 97.47 4.31 C 96.79 5.41 96.21 6.56 95.61 7.70 C 97.14 8.10 98.67 8.47 100.21 8.82 C 99.56 7.17 99.80 4.47 97.47 4.31 M 62.97 5.03 C 62.79 6.23 62.58 7.44 62.51 8.65 C 63.42 9.28 64.40 9.79 65.36 10.33 C 65.90 9.19 66.40 8.02 66.86 6.84 C 65.57 6.24 64.27 5.63 62.97 5.03 M 78.16 6.79 C 78.54 8.32 78.94 9.84 79.35 11.36 C 80.49 10.79 81.65 10.24 82.76 9.58 C 82.78 7.04 80.00 7.14 78.16 6.79 M 70.21 10.16 C 70.24 11.39 70.26 12.62 70.29 13.85 C 71.33 13.70 72.37 13.56 73.41 13.41 C 73.55 12.35 73.69 11.28 73.82 10.21 C 72.62 10.18 71.42 10.17 70.21 10.16 M 90.28 12.33 C 90.25 13.47 90.25 14.61 90.26 15.75 C 91.41 15.78 92.55 15.79 93.70 15.77 C 93.72 14.62 93.72 13.46 93.70 12.30 C 92.55 12.29 91.41 12.30 90.28 12.33 M 137.92 13.43 C 137.92 14.28 137.92 15.99 137.92 16.84 C 138.59 17.20 139.93 17.91 140.59 18.27 C 141.06 16.93 141.56 15.60 141.95 14.24 C 140.63 13.87 139.27 13.66 137.92 13.43 M 80.27 14.23 C 80.27 15.39 80.29 16.55 80.33 17.71 C 81.47 17.73 82.60 17.73 83.74 17.72 C 83.78 16.54 83.80 15.37 83.81 14.19 C 82.63 14.18 81.44 14.20 80.27 14.23 M 89.31 19.97 C 88.09 21.24 89.40 22.88 88.39 24.03 C 89.22 24.01 90.87 23.97 91.70 23.95 C 92.12 23.31 92.96 22.03 93.38 21.39 C 92.04 20.88 90.69 20.36 89.31 19.97 M 136.20 23.19 C 136.18 24.40 136.17 25.61 136.18 26.82 C 137.35 26.82 138.52 26.81 139.69 26.77 C 139.71 25.60 139.70 24.44 139.68 23.27 C 138.52 23.22 137.36 23.20 136.20 23.19 M 84.29 29.24 C 84.25 30.43 84.23 31.61 84.24 32.80 C 85.41 32.81 86.58 32.81 87.75 32.79 C 87.75 31.61 87.73 30.43 87.70 29.26 C 86.56 29.23 85.42 29.23 84.29 29.24 M 95.48 29.52 C 93.79 30.32 94.12 33.58 96.16 33.52 C 97.54 33.83 99.04 32.66 98.54 31.18 C 98.59 29.52 96.78 29.11 95.48 29.52 M 138.03 32.10 C 138.37 33.06 138.72 34.02 139.07 34.98 C 139.78 34.96 141.21 34.92 141.93 34.90 C 141.89 33.58 141.84 32.25 141.79 30.93 C 140.53 31.32 139.28 31.71 138.03 32.10 Z" />
<path fill="#ffffff" opacity="1.00" d=" M 24.73 22.76 C 26.11 24.69 28.02 26.50 28.21 29.01 C 28.75 34.65 28.49 40.33 28.87 45.98 C 29.78 64.32 31.20 82.65 33.64 100.86 C 33.83 102.80 34.13 104.78 33.82 106.73 C 32.95 109.34 31.26 111.59 30.19 114.12 C 28.68 117.42 28.65 121.12 28.49 124.67 C 24.14 123.70 19.52 122.76 15.14 124.15 C 10.73 125.55 6.65 127.83 2.27 129.33 C 2.17 95.54 2.29 61.75 2.22 27.97 C 2.87 31.17 3.54 34.60 5.93 37.03 C 9.25 40.58 12.72 44.12 16.91 46.65 C 19.58 43.20 21.56 39.25 23.14 35.19 C 24.66 31.23 24.57 26.93 24.73 22.76 M 11.58 53.26 C 12.18 54.44 12.77 55.63 13.46 56.76 C 15.67 56.39 15.53 53.86 16.16 52.19 C 14.63 52.53 13.10 52.89 11.58 53.26 M 16.15 61.68 C 16.43 62.85 16.73 64.02 17.06 65.18 C 18.49 65.01 19.92 64.81 21.34 64.61 C 20.69 63.67 20.53 62.23 19.44 61.68 C 18.35 61.59 17.24 61.66 16.15 61.68 M 10.50 68.86 C 11.95 69.56 13.40 70.28 14.93 70.82 C 15.77 69.30 15.85 67.57 14.81 66.12 C 13.12 66.58 11.84 67.82 10.50 68.86 M 18.11 73.50 C 18.41 74.72 18.73 75.94 19.05 77.16 C 19.72 77.13 21.06 77.08 21.73 77.06 C 22.11 76.35 22.88 74.93 23.26 74.22 C 21.53 74.06 19.81 73.81 18.11 73.50 M 12.20 78.20 C 12.21 79.38 12.24 80.55 12.29 81.72 C 13.45 81.76 14.61 81.77 15.78 81.77 C 15.82 80.56 15.84 79.35 15.85 78.14 C 14.63 78.15 13.41 78.16 12.20 78.20 M 20.43 86.86 C 20.57 88.24 20.17 90.72 22.17 90.80 C 24.52 91.30 24.50 88.48 24.57 86.92 C 23.54 86.91 21.47 86.88 20.43 86.86 M 11.61 88.07 C 11.56 89.20 11.48 90.33 11.55 91.45 C 12.05 92.95 13.85 92.25 15.02 92.44 C 15.05 91.58 15.10 89.85 15.12 88.98 C 13.95 88.67 12.78 88.36 11.61 88.07 M 14.17 96.13 C 14.53 97.29 14.89 98.46 15.25 99.62 C 15.95 99.61 17.35 99.58 18.05 99.56 C 18.00 98.10 17.95 96.65 17.89 95.19 C 16.65 95.50 15.41 95.81 14.17 96.13 M 24.31 100.25 C 24.29 101.43 24.28 102.60 24.29 103.78 C 25.44 103.81 26.60 103.81 27.76 103.80 C 27.77 102.61 27.77 101.43 27.74 100.25 C 26.60 100.23 25.46 100.23 24.31 100.25 M 19.47 105.48 C 18.57 106.02 18.22 106.81 18.42 107.84 C 18.28 110.27 22.65 110.21 22.52 107.84 C 22.90 105.99 21.11 104.87 19.47 105.48 M 11.98 112.62 C 12.02 113.42 12.09 115.02 12.13 115.83 C 12.57 116.11 13.45 116.68 13.89 116.97 C 14.55 116.59 15.89 115.82 16.56 115.44 C 15.95 114.51 15.37 113.56 14.65 112.71 C 13.76 112.64 12.87 112.61 11.98 112.62 M 18.62 115.61 C 20.15 116.05 21.68 116.47 23.21 116.87 C 22.82 115.32 22.71 113.62 21.70 112.31 C 19.74 111.94 19.54 114.44 18.62 115.61 Z" />
<path fill="#ffffff" opacity="1.00" d=" M 144.83 87.74 C 147.06 86.51 148.94 84.76 150.87 83.13 C 150.77 114.98 150.68 146.83 150.92 178.67 C 147.01 175.72 142.18 174.78 137.38 174.87 C 138.49 172.71 139.71 170.54 140.05 168.10 C 140.58 163.98 139.75 159.85 138.95 155.82 C 132.93 158.14 126.83 160.38 121.23 163.64 C 120.18 160.35 119.29 156.77 116.73 154.28 C 112.70 150.29 107.42 147.82 101.96 146.49 C 101.82 150.35 101.75 154.22 101.67 158.09 C 93.36 139.72 88.46 120.06 84.90 100.28 C 89.67 100.91 94.52 100.46 98.95 98.49 C 98.26 101.52 97.32 104.65 97.96 107.78 C 98.93 112.78 101.86 117.06 104.80 121.10 C 108.71 117.92 112.88 115.02 116.41 111.40 C 118.62 109.21 119.02 105.99 119.70 103.11 C 121.96 105.57 124.10 108.35 127.20 109.81 C 131.32 111.63 135.94 111.61 140.36 111.62 C 140.31 104.23 140.62 96.47 137.34 89.63 C 139.87 89.16 142.52 88.93 144.83 87.74 M 139.00 118.07 C 139.00 118.80 139.02 120.27 139.03 121.00 C 140.38 120.92 141.73 120.84 143.08 120.75 C 142.69 119.52 142.31 118.29 141.92 117.06 C 140.94 117.39 139.97 117.73 139.00 118.07 M 118.18 121.17 C 117.81 122.39 117.44 123.61 117.07 124.84 C 118.30 125.22 119.54 125.60 120.77 125.99 C 120.88 124.69 120.97 123.38 121.05 122.08 C 120.09 121.78 119.14 121.47 118.18 121.17 M 133.45 122.44 C 131.70 123.28 132.01 126.68 134.17 126.58 C 135.60 126.93 136.97 125.63 136.55 124.18 C 136.61 122.49 134.77 122.09 133.45 122.44 M 125.24 125.23 C 125.24 126.40 125.27 127.56 125.32 128.73 C 126.45 128.75 127.58 128.75 128.71 128.74 C 128.75 127.56 128.77 126.37 128.77 125.19 C 127.59 125.19 126.41 125.20 125.24 125.23 M 111.61 128.00 C 111.47 129.75 111.34 131.50 111.24 133.26 C 112.82 132.42 114.21 131.29 115.29 129.85 C 114.09 129.18 112.86 128.56 111.61 128.00 M 134.64 131.59 C 135.88 132.86 137.12 134.11 138.40 135.34 C 138.73 133.70 140.63 131.50 138.70 130.27 C 137.32 130.64 135.98 131.14 134.64 131.59 M 119.62 132.44 C 120.17 133.86 120.66 135.30 121.36 136.65 C 123.63 137.15 123.44 133.82 124.39 132.46 C 122.80 132.44 121.21 132.44 119.62 132.44 M 127.64 135.60 C 128.87 136.88 130.12 138.13 131.39 139.37 C 131.70 137.74 133.66 135.50 131.68 134.31 C 130.30 134.65 128.97 135.13 127.64 135.60 M 120.29 141.13 C 119.68 142.67 119.54 144.32 119.37 145.95 C 121.21 145.15 122.93 144.12 124.55 142.94 C 123.14 142.32 121.74 141.68 120.29 141.13 M 127.13 142.19 C 127.10 142.95 127.02 144.46 126.98 145.22 C 128.34 145.22 129.71 145.21 131.07 145.21 C 131.03 144.45 130.95 142.93 130.91 142.17 C 130.43 141.90 129.47 141.37 128.99 141.10 C 128.52 141.37 127.60 141.92 127.13 142.19 M 136.10 141.77 C 136.32 142.56 136.75 144.14 136.96 144.94 C 137.94 144.62 138.94 144.36 139.89 143.97 C 140.37 143.05 140.80 142.11 141.16 141.14 C 139.47 141.33 137.79 141.55 136.10 141.77 M 133.70 147.82 C 133.15 148.92 132.63 150.04 132.15 151.18 C 133.48 151.77 134.83 152.36 136.17 152.95 C 136.27 151.81 136.41 150.68 136.39 149.54 C 135.53 148.91 134.61 148.38 133.70 147.82 Z" />
<path fill="#ffffff" opacity="1.00" d=" M 2.17 131.98 C 4.86 136.11 7.47 140.48 11.43 143.55 C 13.97 145.52 17.15 146.33 20.15 147.33 C 17.76 149.94 15.17 152.46 13.42 155.57 C 11.78 158.40 11.83 161.79 11.91 164.96 C 12.06 168.80 12.14 172.65 12.20 176.50 C 18.19 175.05 23.94 172.55 29.00 169.03 C 32.88 166.36 35.74 162.56 38.79 159.04 C 39.17 161.25 39.68 163.46 39.77 165.71 C 34.81 171.50 27.39 174.64 22.39 180.45 C 19.65 183.84 18.45 188.12 16.96 192.14 C 12.45 189.22 7.54 186.94 2.29 185.76 C 2.13 167.83 2.36 149.90 2.17 131.98 Z" />
<path fill="#ffffff" opacity="1.00" d=" M 46.25 173.08 C 48.23 174.95 50.51 176.64 51.75 179.13 C 53.83 183.17 54.92 187.71 57.52 191.48 C 67.29 193.30 77.49 189.82 87.17 192.72 C 91.12 193.88 95.27 193.61 99.33 193.69 C 96.74 197.35 93.65 200.77 92.11 205.06 C 90.10 210.62 89.58 216.61 89.76 222.50 C 95.16 221.29 100.38 219.41 105.62 217.63 C 108.37 216.59 111.30 215.57 113.38 213.40 C 115.16 211.49 116.53 209.25 117.97 207.09 C 119.10 210.32 120.36 213.63 122.80 216.13 C 127.01 220.59 131.84 224.66 137.62 226.89 C 138.32 221.82 140.14 217.01 141.06 212.00 C 141.93 206.70 139.59 201.65 137.09 197.14 C 141.67 196.98 146.23 196.39 150.77 195.77 C 150.81 210.08 150.81 224.40 150.77 238.72 C 115.87 238.67 80.98 238.61 46.08 238.75 C 46.57 235.53 47.62 232.31 47.26 229.03 C 46.48 225.66 44.29 222.89 42.32 220.13 C 45.81 220.00 49.31 219.96 52.76 219.39 C 56.62 218.74 59.65 216.00 62.35 213.36 C 66.59 208.88 70.74 204.13 73.29 198.45 C 67.21 197.47 61.11 196.72 55.02 195.81 C 50.72 195.15 46.42 196.05 42.22 196.92 C 43.96 193.46 46.05 190.00 46.39 186.05 C 46.76 181.73 46.37 177.40 46.25 173.08 M 82.34 206.07 C 81.75 207.63 81.30 209.24 80.84 210.84 C 82.40 210.45 83.95 210.04 85.50 209.61 C 84.58 208.33 83.90 206.70 82.34 206.07 M 74.50 212.53 C 72.58 213.20 73.02 216.79 75.15 216.66 C 76.68 217.10 77.87 215.59 77.54 214.15 C 77.61 212.57 75.72 212.19 74.50 212.53 M 70.21 217.20 C 68.00 218.38 69.24 222.24 71.77 221.78 C 73.46 220.29 73.09 216.29 70.21 217.20 M 111.57 223.33 C 113.25 224.04 115.13 225.48 116.79 223.91 C 116.32 222.49 115.71 221.13 115.12 219.77 C 113.93 220.95 112.74 222.13 111.57 223.33 M 61.79 221.15 C 62.23 222.64 62.32 224.33 63.33 225.60 C 65.27 226.16 65.43 223.49 66.36 222.38 C 64.84 221.94 63.31 221.53 61.79 221.15 M 80.07 221.80 C 79.32 223.30 78.59 224.80 77.88 226.32 C 79.76 226.32 81.63 226.04 83.43 225.49 C 82.33 224.24 81.20 223.01 80.07 221.80 M 104.37 224.25 C 102.77 225.37 103.36 227.49 103.11 229.15 C 104.25 228.53 105.46 228.03 106.60 227.40 C 106.73 225.99 106.27 223.72 104.37 224.25 M 53.57 224.95 C 53.53 225.86 53.53 226.78 53.56 227.69 C 54.51 228.35 55.54 228.85 56.56 229.40 C 56.73 227.95 56.89 226.50 57.04 225.05 C 56.17 225.02 54.44 224.97 53.57 224.95 M 119.05 227.73 C 120.70 228.31 122.41 228.73 124.10 229.17 C 123.61 227.78 123.14 226.38 122.52 225.05 C 120.89 225.24 119.46 226.05 119.05 227.73 M 69.29 226.22 C 69.26 227.39 69.26 228.56 69.28 229.73 C 70.41 229.75 71.54 229.75 72.68 229.74 C 72.70 228.56 72.70 227.39 72.68 226.22 C 71.55 226.20 70.42 226.20 69.29 226.22 Z" />
<path fill="#ffffff" opacity="1.00" d=" M 2.26 213.29 C 4.11 213.74 5.96 214.19 7.83 214.61 C 5.88 216.65 3.94 218.71 2.07 220.83 C 2.16 218.31 2.22 215.80 2.26 213.29 Z" />
<path fill="#ffffff" opacity="1.00" d=" M 21.76 230.34 C 23.37 233.18 25.02 235.99 26.75 238.75 C 22.90 238.67 19.05 238.68 15.20 238.84 C 17.82 236.37 20.03 233.50 21.76 230.34 Z" />
</g>
<g id="#858585ff">
<path fill="#858585" opacity="1.00" d=" M 105.85 20.93 C 106.40 14.24 107.69 7.39 111.68 1.81 C 115.90 1.96 120.12 2.13 124.34 2.34 C 120.40 7.10 115.73 11.21 111.95 16.10 C 114.84 14.40 117.69 12.50 119.92 9.95 C 122.39 7.37 124.34 4.18 127.45 2.29 C 130.66 1.22 134.14 1.87 137.45 1.93 C 135.09 6.49 132.44 11.16 128.18 14.22 C 121.76 18.99 113.57 20.05 105.85 20.93 Z" />
<path fill="#858585" opacity="1.00" d=" M 31.20 128.63 C 31.10 122.58 31.19 116.20 34.66 110.96 C 36.34 119.95 38.91 128.92 38.36 138.15 C 30.11 135.07 21.46 132.07 12.51 133.35 C 16.33 134.88 20.44 135.27 24.47 135.81 C 29.14 136.40 33.51 138.24 37.79 140.09 C 35.75 142.60 33.76 145.14 31.87 147.77 C 34.38 145.88 36.83 143.90 39.27 141.91 C 41.42 145.99 42.99 150.33 44.06 154.81 C 45.51 160.74 47.85 166.45 48.64 172.54 C 46.43 169.31 44.52 165.89 42.56 162.51 C 40.85 159.79 41.09 156.45 40.23 153.45 C 39.92 153.21 39.30 152.74 38.99 152.51 C 36.48 156.16 34.81 160.43 31.57 163.55 C 26.95 168.02 20.85 170.39 15.05 172.90 C 14.87 167.80 13.83 162.47 15.52 157.51 C 17.80 152.45 22.80 149.48 26.77 145.87 C 22.91 144.98 18.90 144.45 15.30 142.72 C 10.76 140.44 7.92 136.03 5.27 131.89 C 9.53 129.32 13.99 126.62 19.08 126.28 C 23.27 125.87 27.34 127.18 31.20 128.63 M 20.01 162.74 C 20.44 163.02 21.29 163.58 21.71 163.86 C 23.83 158.88 26.87 154.41 30.08 150.09 C 25.54 153.23 22.05 157.61 20.01 162.74 Z" />
<path fill="#858585" opacity="1.00" d=" M 104.52 149.93 C 109.36 152.17 114.85 154.61 117.21 159.75 C 118.73 163.84 118.65 168.29 119.40 172.55 C 121.30 170.06 122.82 167.27 124.92 164.93 C 128.45 162.21 132.91 161.14 137.06 159.71 C 137.24 163.06 137.79 166.49 136.98 169.79 C 135.50 172.92 132.70 175.15 130.50 177.75 C 134.66 177.79 138.84 177.43 142.98 177.88 C 145.73 178.19 148.32 179.72 149.97 181.92 C 150.90 183.73 150.69 185.87 150.98 187.83 C 146.07 186.67 141.15 185.39 136.09 185.13 C 130.41 184.81 124.72 184.62 119.07 183.93 C 124.22 178.01 131.26 173.01 133.15 164.96 C 130.73 167.63 128.67 170.60 126.49 173.46 C 123.84 176.95 120.64 179.96 117.45 182.96 C 116.00 174.53 114.46 165.51 108.92 158.68 C 110.94 166.57 114.81 173.92 115.79 182.10 C 111.78 176.99 108.26 171.49 105.33 165.70 C 102.72 160.81 104.30 155.15 104.52 149.93 Z" />
<path fill="#858585" opacity="1.00" d=" M 119.10 185.93 C 129.67 186.68 140.41 186.49 150.68 189.44 C 150.71 190.53 150.73 191.62 150.74 192.71 C 144.19 194.27 137.45 193.85 130.78 193.77 C 133.56 197.98 137.38 201.86 138.20 207.03 C 139.09 212.47 137.05 217.76 135.15 222.75 C 130.66 219.74 126.06 216.52 123.08 211.90 C 120.29 207.61 120.16 202.34 119.13 197.48 C 115.58 202.06 115.32 208.83 110.30 212.27 C 104.93 215.59 98.74 217.33 92.59 218.55 C 92.92 214.23 93.25 209.82 94.81 205.73 C 96.26 201.87 98.96 198.68 101.55 195.54 C 102.97 193.94 104.35 192.21 106.24 191.15 C 108.31 190.70 110.43 190.78 112.53 190.71 C 110.27 196.31 106.86 201.37 102.79 205.81 C 100.49 208.29 98.42 210.99 96.93 214.04 C 101.83 210.59 105.41 205.67 108.76 200.78 C 111.01 197.52 112.61 193.79 115.33 190.87 C 117.16 190.36 119.66 190.34 120.65 192.29 C 123.10 195.70 124.85 199.55 126.73 203.29 C 129.12 207.98 130.12 213.40 133.65 217.46 C 131.42 205.95 124.73 196.01 119.10 185.93 Z" />
</g>
<g id="#343434ff">
<path fill="#343434" opacity="1.00" d=" M 85.55 7.63 C 86.49 6.42 86.96 4.51 88.67 4.20 C 89.31 5.70 89.76 7.26 90.29 8.79 C 88.70 8.43 87.12 8.04 85.55 7.63 Z" />
<path fill="#343434" opacity="1.00" d=" M 78.16 6.79 C 80.00 7.14 82.78 7.04 82.76 9.58 C 81.65 10.24 80.49 10.79 79.35 11.36 C 78.94 9.84 78.54 8.32 78.16 6.79 Z" />
<path fill="#343434" opacity="1.00" d=" M 90.28 12.33 C 91.41 12.30 92.55 12.29 93.70 12.30 C 93.72 13.46 93.72 14.62 93.70 15.77 C 92.55 15.79 91.41 15.78 90.26 15.75 C 90.25 14.61 90.25 13.47 90.28 12.33 Z" />
<path fill="#343434" opacity="1.00" d=" M 84.29 29.24 C 85.42 29.23 86.56 29.23 87.70 29.26 C 87.73 30.43 87.75 31.61 87.75 32.79 C 86.58 32.81 85.41 32.81 84.24 32.80 C 84.23 31.61 84.25 30.43 84.29 29.24 Z" />
<path fill="#343434" opacity="1.00" d=" M 95.48 29.52 C 96.78 29.11 98.59 29.52 98.54 31.18 C 99.04 32.66 97.54 33.83 96.16 33.52 C 94.12 33.58 93.79 30.32 95.48 29.52 Z" />
<path fill="#343434" opacity="1.00" d=" M 12.20 78.20 C 13.41 78.16 14.63 78.15 15.85 78.14 C 15.84 79.35 15.82 80.56 15.78 81.77 C 14.61 81.77 13.45 81.76 12.29 81.72 C 12.24 80.55 12.21 79.38 12.20 78.20 Z" />
<path fill="#343434" opacity="1.00" d=" M 14.17 96.13 C 15.41 95.81 16.65 95.50 17.89 95.19 C 17.95 96.65 18.00 98.10 18.05 99.56 C 17.35 99.58 15.95 99.61 15.25 99.62 C 14.89 98.46 14.53 97.29 14.17 96.13 Z" />
<path fill="#343434" opacity="1.00" d=" M 24.31 100.25 C 25.46 100.23 26.60 100.23 27.74 100.25 C 27.77 101.43 27.77 102.61 27.76 103.80 C 26.60 103.81 25.44 103.81 24.29 103.78 C 24.28 102.60 24.29 101.43 24.31 100.25 Z" />
<path fill="#343434" opacity="1.00" d=" M 125.24 125.23 C 126.41 125.20 127.59 125.19 128.77 125.19 C 128.77 126.37 128.75 127.56 128.71 128.74 C 127.58 128.75 126.45 128.75 125.32 128.73 C 125.27 127.56 125.24 126.40 125.24 125.23 Z" />
<path fill="#343434" opacity="1.00" d=" M 111.61 128.00 C 112.86 128.56 114.09 129.18 115.29 129.85 C 114.21 131.29 112.82 132.42 111.24 133.26 C 111.34 131.50 111.47 129.75 111.61 128.00 Z" />
<path fill="#343434" opacity="1.00" d=" M 119.62 132.44 C 121.21 132.44 122.80 132.44 124.39 132.46 C 123.44 133.82 123.63 137.15 121.36 136.65 C 120.66 135.30 120.17 133.86 119.62 132.44 Z" />
<path fill="#343434" opacity="1.00" d=" M 133.70 147.82 C 134.61 148.38 135.53 148.91 136.39 149.54 C 136.41 150.68 136.27 151.81 136.17 152.95 C 134.83 152.36 133.48 151.77 132.15 151.18 C 132.63 150.04 133.15 148.92 133.70 147.82 Z" />
<path fill="#343434" opacity="1.00" d=" M 119.05 227.73 C 119.46 226.05 120.89 225.24 122.52 225.05 C 123.14 226.38 123.61 227.78 124.10 229.17 C 122.41 228.73 120.70 228.31 119.05 227.73 Z" />
</g>
<g id="#333333ff">
<path fill="#333333" opacity="1.00" d=" M 97.47 4.31 C 99.80 4.47 99.56 7.17 100.21 8.82 C 98.67 8.47 97.14 8.10 95.61 7.70 C 96.21 6.56 96.79 5.41 97.47 4.31 Z" />
<path fill="#333333" opacity="1.00" d=" M 70.21 10.16 C 71.42 10.17 72.62 10.18 73.82 10.21 C 73.69 11.28 73.55 12.35 73.41 13.41 C 72.37 13.56 71.33 13.70 70.29 13.85 C 70.26 12.62 70.24 11.39 70.21 10.16 Z" />
<path fill="#333333" opacity="1.00" d=" M 11.58 53.26 C 13.10 52.89 14.63 52.53 16.16 52.19 C 15.53 53.86 15.67 56.39 13.46 56.76 C 12.77 55.63 12.18 54.44 11.58 53.26 Z" />
<path fill="#333333" opacity="1.00" d=" M 19.47 105.48 C 21.11 104.87 22.90 105.99 22.52 107.84 C 22.65 110.21 18.28 110.27 18.42 107.84 C 18.22 106.81 18.57 106.02 19.47 105.48 Z" />
<path fill="#333333" opacity="1.00" d=" M 18.62 115.61 C 19.54 114.44 19.74 111.94 21.70 112.31 C 22.71 113.62 22.82 115.32 23.21 116.87 C 21.68 116.47 20.15 116.05 18.62 115.61 Z" />
<path fill="#333333" opacity="1.00" d=" M 133.45 122.44 C 134.77 122.09 136.61 122.49 136.55 124.18 C 136.97 125.63 135.60 126.93 134.17 126.58 C 132.01 126.68 131.70 123.28 133.45 122.44 Z" />
<path fill="#333333" opacity="1.00" d=" M 134.64 131.59 C 135.98 131.14 137.32 130.64 138.70 130.27 C 140.63 131.50 138.73 133.70 138.40 135.34 C 137.12 134.11 135.88 132.86 134.64 131.59 Z" />
<path fill="#333333" opacity="1.00" d=" M 127.64 135.60 C 128.97 135.13 130.30 134.65 131.68 134.31 C 133.66 135.50 131.70 137.74 131.39 139.37 C 130.12 138.13 128.87 136.88 127.64 135.60 Z" />
<path fill="#333333" opacity="1.00" d=" M 120.29 141.13 C 121.74 141.68 123.14 142.32 124.55 142.94 C 122.93 144.12 121.21 145.15 119.37 145.95 C 119.54 144.32 119.68 142.67 120.29 141.13 Z" />
<path fill="#333333" opacity="1.00" d=" M 136.10 141.77 C 137.79 141.55 139.47 141.33 141.16 141.14 C 140.80 142.11 140.37 143.05 139.89 143.97 C 138.94 144.36 137.94 144.62 136.96 144.94 C 136.75 144.14 136.32 142.56 136.10 141.77 Z" />
<path fill="#333333" opacity="1.00" d=" M 82.34 206.07 C 83.90 206.70 84.58 208.33 85.50 209.61 C 83.95 210.04 82.40 210.45 80.84 210.84 C 81.30 209.24 81.75 207.63 82.34 206.07 Z" />
<path fill="#333333" opacity="1.00" d=" M 74.50 212.53 C 75.72 212.19 77.61 212.57 77.54 214.15 C 77.87 215.59 76.68 217.10 75.15 216.66 C 73.02 216.79 72.58 213.20 74.50 212.53 Z" />
<path fill="#333333" opacity="1.00" d=" M 61.79 221.15 C 63.31 221.53 64.84 221.94 66.36 222.38 C 65.43 223.49 65.27 226.16 63.33 225.60 C 62.32 224.33 62.23 222.64 61.79 221.15 Z" />
<path fill="#333333" opacity="1.00" d=" M 104.37 224.25 C 106.27 223.72 106.73 225.99 106.60 227.40 C 105.46 228.03 104.25 228.53 103.11 229.15 C 103.36 227.49 102.77 225.37 104.37 224.25 Z" />
</g>
<g id="#727272ff">
<path fill="#727272" opacity="1.00" d=" M 62.97 5.03 C 64.27 5.63 65.57 6.24 66.86 6.84 C 66.40 8.02 65.90 9.19 65.36 10.33 C 64.40 9.79 63.42 9.28 62.51 8.65 C 62.58 7.44 62.79 6.23 62.97 5.03 Z" />
</g>
<g id="#030101ff">
<path fill="#030101" opacity="1.00" d=" M 14.84 34.56 C 12.88 26.66 12.91 18.17 14.89 10.29 C 15.38 18.36 15.25 26.48 14.84 34.56 Z" />
</g>
<g id="#676767ff">
<path fill="#676767" opacity="1.00" d=" M 137.92 13.43 C 139.27 13.66 140.63 13.87 141.95 14.24 C 141.56 15.60 141.06 16.93 140.59 18.27 C 139.93 17.91 138.59 17.20 137.92 16.84 C 137.92 15.99 137.92 14.28 137.92 13.43 Z" />
<path fill="#676767" opacity="1.00" d=" M 11.61 88.07 C 12.78 88.36 13.95 88.67 15.12 88.98 C 15.10 89.85 15.05 91.58 15.02 92.44 C 13.85 92.25 12.05 92.95 11.55 91.45 C 11.48 90.33 11.56 89.20 11.61 88.07 Z" />
</g>
<g id="#353535ff">
<path fill="#353535" opacity="1.00" d=" M 80.27 14.23 C 81.44 14.20 82.63 14.18 83.81 14.19 C 83.80 15.37 83.78 16.54 83.74 17.72 C 82.60 17.73 81.47 17.73 80.33 17.71 C 80.29 16.55 80.27 15.39 80.27 14.23 Z" />
</g>
<g id="#686868ff">
<path fill="#686868" opacity="1.00" d=" M 89.31 19.97 C 90.69 20.36 92.04 20.88 93.38 21.39 C 92.96 22.03 92.12 23.31 91.70 23.95 C 90.87 23.97 89.22 24.01 88.39 24.03 C 89.40 22.88 88.09 21.24 89.31 19.97 Z" />
</g>
<g id="#363636ff">
<path fill="#363636" opacity="1.00" d=" M 136.20 23.19 C 137.36 23.20 138.52 23.22 139.68 23.27 C 139.70 24.44 139.71 25.60 139.69 26.77 C 138.52 26.81 137.35 26.82 136.18 26.82 C 136.17 25.61 136.18 24.40 136.20 23.19 Z" />
<path fill="#363636" opacity="1.00" d=" M 69.29 226.22 C 70.42 226.20 71.55 226.20 72.68 226.22 C 72.70 227.39 72.70 228.56 72.68 229.74 C 71.54 229.75 70.41 229.75 69.28 229.73 C 69.26 228.56 69.26 227.39 69.29 226.22 Z" />
</g>
<g id="#9260c7ff">
<path fill="#9260c7" opacity="1.00" d=" M 31.10 24.27 C 45.96 24.43 60.82 24.36 75.68 24.31 C 75.48 37.98 75.77 51.69 77.29 65.28 C 79.77 91.62 84.30 117.93 92.96 142.99 C 97.20 154.80 102.19 166.42 109.02 176.99 C 111.40 180.61 113.94 184.12 116.28 187.76 C 101.88 188.67 87.43 188.01 73.04 189.05 C 69.06 189.23 65.05 189.64 61.08 189.21 C 59.04 189.13 58.43 186.82 57.54 185.38 C 52.47 174.44 49.03 162.84 45.77 151.25 C 43.25 142.38 41.84 133.24 39.88 124.24 C 37.83 114.83 37.01 105.22 35.60 95.71 C 34.03 84.52 33.15 73.24 32.50 61.96 C 31.10 49.45 31.04 36.85 31.10 24.27 Z" />
</g>
<g id="#5d5d5dff">
<path fill="#5d5d5d" opacity="1.00" d=" M 138.03 32.10 C 139.28 31.71 140.53 31.32 141.79 30.93 C 141.84 32.25 141.89 33.58 141.93 34.90 C 141.21 34.92 139.78 34.96 139.07 34.98 C 138.72 34.02 138.37 33.06 138.03 32.10 Z" />
</g>
<g id="#6c6c6cff">
<path fill="#6c6c6c" opacity="1.00" d=" M 16.15 61.68 C 17.24 61.66 18.35 61.59 19.44 61.68 C 20.53 62.23 20.69 63.67 21.34 64.61 C 19.92 64.81 18.49 65.01 17.06 65.18 C 16.73 64.02 16.43 62.85 16.15 61.68 Z" />
<path fill="#6c6c6c" opacity="1.00" d=" M 118.18 121.17 C 119.14 121.47 120.09 121.78 121.05 122.08 C 120.97 123.38 120.88 124.69 120.77 125.99 C 119.54 125.60 118.30 125.22 117.07 124.84 C 117.44 123.61 117.81 122.39 118.18 121.17 Z" />
<path fill="#6c6c6c" opacity="1.00" d=" M 70.21 217.20 C 73.09 216.29 73.46 220.29 71.77 221.78 C 69.24 222.24 68.00 218.38 70.21 217.20 Z" />
</g>
<g id="#717171ff">
<path fill="#717171" opacity="1.00" d=" M 10.50 68.86 C 11.84 67.82 13.12 66.58 14.81 66.12 C 15.85 67.57 15.77 69.30 14.93 70.82 C 13.40 70.28 11.95 69.56 10.50 68.86 Z" />
<path fill="#717171" opacity="1.00" d=" M 111.57 223.33 C 112.74 222.13 113.93 220.95 115.12 219.77 C 115.71 221.13 116.32 222.49 116.79 223.91 C 115.13 225.48 113.25 224.04 111.57 223.33 Z" />
</g>
<g id="#6e6e6eff">
<path fill="#6e6e6e" opacity="1.00" d=" M 18.11 73.50 C 19.81 73.81 21.53 74.06 23.26 74.22 C 22.88 74.93 22.11 76.35 21.73 77.06 C 21.06 77.08 19.72 77.13 19.05 77.16 C 18.73 75.94 18.41 74.72 18.11 73.50 Z" />
</g>
<g id="#626262ff">
<path fill="#626262" opacity="1.00" d=" M 20.43 86.86 C 21.47 86.88 23.54 86.91 24.57 86.92 C 24.50 88.48 24.52 91.30 22.17 90.80 C 20.17 90.72 20.57 88.24 20.43 86.86 Z" />
</g>
<g id="#646464ff">
<path fill="#646464" opacity="1.00" d=" M 11.98 112.62 C 12.87 112.61 13.76 112.64 14.65 112.71 C 15.37 113.56 15.95 114.51 16.56 115.44 C 15.89 115.82 14.55 116.59 13.89 116.97 C 13.45 116.68 12.57 116.11 12.13 115.83 C 12.09 115.02 12.02 113.42 11.98 112.62 Z" />
</g>
<g id="#5a5a5aff">
<path fill="#5a5a5a" opacity="1.00" d=" M 139.00 118.07 C 139.97 117.73 140.94 117.39 141.92 117.06 C 142.31 118.29 142.69 119.52 143.08 120.75 C 141.73 120.84 140.38 120.92 139.03 121.00 C 139.02 120.27 139.00 118.80 139.00 118.07 Z" />
</g>
<g id="#666666ff">
<path fill="#666666" opacity="1.00" d=" M 127.13 142.19 C 127.60 141.92 128.52 141.37 128.99 141.10 C 129.47 141.37 130.43 141.90 130.91 142.17 C 130.95 142.93 131.03 144.45 131.07 145.21 C 129.71 145.21 128.34 145.22 126.98 145.22 C 127.02 144.46 127.10 142.95 127.13 142.19 Z" />
</g>
<g id="#2b2b2bff">
<path fill="#2b2b2b" opacity="1.00" d=" M 20.01 162.74 C 22.05 157.61 25.54 153.23 30.08 150.09 C 26.87 154.41 23.83 158.88 21.71 163.86 C 21.29 163.58 20.44 163.02 20.01 162.74 Z" />
</g>
<g id="#b5512fff">
<path fill="#b5512f" opacity="1.00" d=" M 0.00 188.78 C 2.41 189.20 2.40 192.80 0.00 193.23 L 0.00 188.78 Z" />
</g>
<g id="#c65833ff">
<path fill="#c65833" opacity="1.00" d=" M 0.00 194.25 C 1.13 199.52 1.19 204.95 0.00 210.21 L 0.00 194.25 Z" />
</g>
<g id="#e8e8e8ff">
<path fill="#e8e8e8" opacity="1.00" d=" M 0.00 211.72 C 1.00 215.62 0.98 219.68 0.00 223.58 L 0.00 211.72 Z" />
</g>
<g id="#737373ff">
<path fill="#737373" opacity="1.00" d=" M 80.07 221.80 C 81.20 223.01 82.33 224.24 83.43 225.49 C 81.63 226.04 79.76 226.32 77.88 226.32 C 78.59 224.80 79.32 223.30 80.07 221.80 Z" />
</g>
<g id="#5b5b5bff">
<path fill="#5b5b5b" opacity="1.00" d=" M 53.57 224.95 C 54.44 224.97 56.17 225.02 57.04 225.05 C 56.89 226.50 56.73 227.95 56.56 229.40 C 55.54 228.85 54.51 228.35 53.56 227.69 C 53.53 226.78 53.53 225.86 53.57 224.95 Z" />
</g>
<g id="#cd5b35ff">
<path fill="#cd5b35" opacity="1.00" d=" M 0.00 227.53 C 0.53 231.68 1.04 235.83 1.36 240.00 L 0.00 240.00 L 0.00 227.53 Z" />
</g>
<g id="#1d0d07ff">
<path fill="#1d0d07" opacity="1.00" d=" M 37.28 237.60 L 38.11 237.70 C 39.78 237.91 41.46 238.14 43.13 238.35 C 42.98 238.77 42.68 239.59 42.53 240.00 L 31.71 240.00 C 31.20 239.63 30.18 238.88 29.68 238.51 C 32.20 238.14 34.74 237.82 37.28 237.60 Z" />
</g>
</svg>
