<?xml version="1.0" encoding="UTF-8" ?>
<!DOCTYPE svg PUBLIC "-//W3C//DTD SVG 1.1//EN" "http://www.w3.org/Graphics/SVG/1.1/DTD/svg11.dtd">
<svg width="152pt" height="240pt" viewBox="0 0 152 240" version="1.1" xmlns="http://www.w3.org/2000/svg">
<g id="#fcfcfcff">
<path fill="#fcfcfc" opacity="1.00" d=" M 0.00 0.00 L 1.02 0.00 L 1.01 1.03 C 1.01 12.36 0.94 23.68 1.07 35.00 C 1.15 39.18 0.78 43.35 0.00 47.44 L 0.00 0.00 Z" />
<path fill="#fcfcfc" opacity="1.00" d=" M 0.00 157.57 C 0.78 161.66 1.15 165.83 1.07 169.99 C 0.95 180.33 1.02 190.67 0.99 201.00 C 0.93 208.99 1.58 217.06 0.00 224.95 L 0.00 157.57 Z" />
</g>
<g id="#777777ff">
<path fill="#777777" opacity="1.00" d=" M 1.02 0.00 L 86.63 0.00 C 82.14 0.88 77.59 1.59 73.00 1.44 C 49.01 1.00 25.00 1.76 1.01 1.03 L 1.02 0.00 Z" />
<path fill="#777777" opacity="1.00" d=" M 141.30 0.00 L 152.00 0.00 L 152.00 1.56 C 148.42 1.13 144.86 0.54 141.30 0.00 Z" />
</g>
<g id="#010000ff">
<path fill="#010000" opacity="1.00" d=" M 86.63 0.00 L 89.11 0.00 C 89.34 1.76 89.58 3.52 89.79 5.28 C 90.29 10.42 91.28 15.64 93.91 20.15 C 96.09 23.84 98.86 27.12 101.35 30.59 C 95.81 31.15 90.09 30.94 84.76 32.73 C 79.62 34.53 76.06 38.88 72.71 42.94 C 77.69 45.42 82.99 48.48 88.76 47.68 C 93.79 46.72 98.35 44.24 103.18 42.65 C 101.12 47.99 98.19 53.14 97.64 58.94 C 97.02 66.02 98.08 73.12 99.37 80.07 C 104.90 76.15 110.36 71.70 113.73 65.71 C 115.76 61.14 115.80 56.02 116.78 51.18 C 118.75 54.30 120.53 57.54 122.23 60.82 C 123.80 63.75 125.58 66.86 128.62 68.47 C 131.55 69.93 134.88 70.11 138.06 70.59 C 137.80 64.94 138.17 58.83 135.14 53.80 C 132.90 50.14 130.10 46.86 127.67 43.32 C 132.67 44.41 137.77 46.02 142.94 45.25 C 145.77 44.75 148.76 43.71 150.64 41.41 C 151.65 38.39 150.11 35.14 147.58 33.39 C 142.79 29.92 136.97 28.38 131.58 26.13 C 134.17 23.22 137.42 20.57 138.60 16.72 C 139.54 12.88 139.39 8.87 139.13 4.96 C 138.98 3.31 138.80 1.65 138.63 0.00 L 141.30 0.00 C 144.86 0.54 148.42 1.13 152.00 1.56 L 152.00 240.00 L 0.57 240.00 C 2.04 238.53 1.36 236.29 0.00 235.04 L 0.00 232.93 C 2.07 232.98 2.22 229.53 0.00 229.85 L 0.00 224.95 C 1.58 217.06 0.93 208.99 0.99 201.00 C 1.02 190.67 0.95 180.33 1.07 169.99 C 1.15 165.83 0.78 161.66 0.00 157.57 L 0.00 155.31 C 1.46 148.81 1.35 142.11 0.00 135.60 L 0.00 132.49 C 1.51 125.09 0.98 117.51 1.00 110.00 C 1.00 97.67 1.00 85.33 1.00 73.00 C 0.97 65.22 1.53 57.36 0.00 49.67 L 0.00 47.44 C 0.78 43.35 1.15 39.18 1.07 35.00 C 0.94 23.68 1.01 12.36 1.01 1.03 C 25.00 1.76 49.01 1.00 73.00 1.44 C 77.59 1.59 82.14 0.88 86.63 0.00 M 2.23 2.01 C 2.24 17.04 2.22 32.07 2.24 47.11 C 6.80 47.18 11.37 46.98 15.91 47.48 C 21.00 48.04 25.36 50.95 29.82 53.21 C 31.18 48.12 32.13 42.66 35.36 38.34 C 39.29 33.48 44.86 30.40 49.97 26.96 C 52.79 25.02 55.59 23.05 58.67 21.53 C 58.94 29.37 58.56 37.22 58.40 45.06 C 58.32 49.89 56.88 54.54 55.09 58.97 C 59.79 59.35 64.67 59.72 68.90 62.04 C 75.84 65.71 82.40 70.06 89.54 73.38 C 85.55 77.71 80.33 80.58 75.11 83.15 C 71.99 84.61 68.61 85.95 65.09 85.62 C 61.65 85.37 58.26 84.77 54.83 84.44 C 57.09 89.49 58.81 94.85 58.65 100.45 C 60.42 100.80 62.20 101.14 63.97 101.50 C 62.00 106.05 60.30 110.73 58.06 115.14 C 54.48 118.72 50.27 121.60 46.13 124.49 C 49.08 126.62 52.24 128.61 54.40 131.60 C 56.82 134.95 58.56 138.73 60.89 142.14 C 63.56 146.21 67.20 149.51 70.30 153.24 C 62.02 154.08 53.67 152.73 45.72 150.46 C 39.14 148.63 33.18 145.21 27.24 141.95 C 24.08 146.12 20.97 150.61 16.34 153.29 C 12.02 155.65 7.09 156.46 2.33 157.47 C 2.12 178.67 2.29 199.87 2.25 221.06 C 5.43 217.32 8.39 213.34 12.07 210.05 C 16.32 206.27 21.44 203.66 26.65 201.48 C 22.21 199.14 17.56 196.45 15.18 191.82 C 12.02 185.65 11.76 178.56 10.19 171.92 C 17.27 171.68 24.51 172.29 31.17 174.88 C 35.27 176.54 39.02 178.91 42.88 181.04 C 44.81 177.68 46.72 174.24 49.39 171.38 C 53.21 167.31 58.08 164.33 63.25 162.29 C 68.32 160.33 73.28 158.06 78.58 156.78 C 78.74 163.48 78.94 170.26 77.66 176.87 C 76.53 182.71 73.02 187.64 69.68 192.41 C 74.77 194.31 80.00 196.22 84.16 199.84 C 89.47 204.33 95.61 207.80 100.44 212.85 C 95.04 215.28 89.29 216.77 83.71 218.69 C 80.88 219.60 78.02 220.69 75.00 220.62 C 72.43 220.53 69.94 219.84 67.46 219.26 C 67.70 225.78 67.50 232.33 66.29 238.75 C 94.44 238.59 122.60 238.70 150.75 238.70 C 150.80 225.67 150.89 212.64 150.71 199.62 C 145.29 199.18 140.26 197.03 135.59 194.37 C 134.76 198.19 133.89 202.21 131.28 205.26 C 127.29 209.93 122.76 214.11 118.47 218.49 C 117.27 219.40 116.18 221.37 114.43 220.54 C 110.75 211.11 109.78 200.63 111.85 190.70 C 106.54 190.87 101.01 192.07 95.86 190.24 C 91.35 188.69 87.09 186.52 82.78 184.49 C 84.68 181.25 87.34 178.56 90.34 176.33 C 95.87 171.74 102.30 168.40 108.95 165.74 C 108.86 158.08 107.37 150.25 109.51 142.73 C 110.87 137.75 112.47 132.83 113.76 127.83 C 118.03 130.31 120.56 134.65 123.74 138.27 C 125.55 140.45 127.52 142.52 129.09 144.89 C 131.06 147.84 131.78 151.38 132.64 154.77 C 135.38 152.76 138.10 150.64 141.27 149.36 C 144.27 148.14 147.51 147.80 150.69 147.37 C 150.89 113.52 150.82 79.65 150.72 45.79 C 145.68 47.58 140.40 48.60 135.05 48.54 C 136.89 51.55 138.90 54.59 139.59 58.11 C 140.58 63.16 140.94 68.30 141.37 73.42 C 136.08 73.30 130.39 73.14 125.78 70.24 C 122.33 67.36 120.58 63.04 118.56 59.14 C 117.80 63.80 116.41 68.56 112.95 71.96 C 108.37 76.60 103.68 81.43 97.66 84.18 C 95.49 75.98 94.19 67.44 94.85 58.95 C 95.16 54.79 96.68 50.86 98.55 47.17 C 94.93 48.84 91.13 50.72 87.02 50.41 C 80.36 49.95 74.10 47.25 68.35 43.99 C 71.82 38.96 76.11 34.37 81.46 31.34 C 86.13 28.73 91.64 28.62 96.85 28.46 C 93.59 24.74 90.43 20.73 89.02 15.92 C 87.67 11.30 87.22 6.49 86.25 1.80 C 58.24 2.07 30.23 1.65 2.23 2.01 M 141.69 1.79 C 141.67 6.13 142.02 10.48 141.69 14.82 C 141.40 18.96 138.76 22.34 136.44 25.59 C 141.59 26.83 146.52 28.89 150.84 31.96 C 150.75 21.96 150.83 11.96 150.80 1.96 C 147.76 1.87 144.73 1.81 141.69 1.79 M 40.11 37.12 C 34.59 42.29 33.14 50.07 31.50 57.11 C 27.92 55.62 24.60 53.62 21.14 51.90 C 15.68 49.26 9.44 49.48 3.55 49.87 C 5.04 55.41 5.76 61.33 8.69 66.34 C 12.28 71.21 18.98 71.28 24.24 73.14 C 20.04 77.61 14.42 80.87 11.50 86.44 C 8.80 91.42 6.79 96.74 4.98 102.10 C 10.64 101.64 16.48 101.14 21.68 98.65 C 25.93 96.41 29.18 92.78 32.88 89.78 C 35.43 93.47 37.50 97.45 39.75 101.32 C 43.20 107.09 49.45 110.43 55.64 112.49 C 55.67 106.99 56.03 101.48 55.72 95.99 C 55.49 90.02 51.08 85.53 48.82 80.28 C 55.14 81.13 61.39 83.42 67.83 82.69 C 74.01 81.48 79.38 77.88 84.33 74.15 C 80.51 71.83 76.66 69.56 72.90 67.16 C 69.75 65.21 66.53 63.08 62.78 62.55 C 58.80 61.95 54.77 62.13 50.76 61.96 C 52.64 56.95 55.28 52.07 55.55 46.62 C 55.87 39.81 55.74 32.98 55.88 26.16 C 50.54 29.69 44.89 32.84 40.11 37.12 M 2.20 54.86 C 2.27 70.26 2.23 85.67 2.22 101.08 C 3.47 98.00 4.93 94.96 5.63 91.69 C 6.19 88.24 5.91 84.73 5.96 81.26 C 7.61 81.45 9.26 81.67 10.91 81.87 C 13.36 79.44 15.87 77.06 18.40 74.70 C 14.76 73.13 10.71 72.05 7.80 69.22 C 4.24 65.29 3.40 59.83 2.20 54.86 M 8.29 85.29 L 8.29 85.74 L 8.74 85.73 L 8.73 85.29 L 8.29 85.29 M 31.52 93.69 C 30.57 94.81 29.62 95.94 28.67 97.07 C 30.02 100.37 31.24 103.73 32.43 107.09 C 34.24 105.99 36.06 104.90 37.91 103.87 C 36.23 100.22 34.21 96.70 31.52 93.69 M 18.24 103.22 C 21.32 109.74 24.63 116.16 27.35 122.86 C 33.67 119.25 39.75 115.24 45.60 110.92 C 43.59 109.31 41.83 106.94 39.18 106.44 C 36.08 107.70 33.45 109.82 30.67 111.61 C 29.44 107.43 28.10 103.27 26.86 99.09 C 23.93 100.35 21.07 101.75 18.24 103.22 M 58.11 103.13 C 58.16 104.84 58.20 106.54 58.23 108.25 C 58.92 106.57 59.69 104.92 60.51 103.30 C 59.91 103.26 58.71 103.17 58.11 103.13 M 8.97 104.28 C 10.27 110.78 14.03 116.29 17.36 121.89 C 13.24 124.12 9.02 126.34 5.68 129.69 C 4.20 131.20 2.60 132.90 2.42 135.12 C 1.93 139.38 2.24 143.67 2.27 147.94 C 8.93 141.72 14.73 134.63 21.53 128.54 C 22.87 127.27 24.27 126.04 25.35 124.54 C 25.59 122.91 24.84 121.34 24.30 119.85 C 22.00 114.44 19.28 109.22 16.72 103.93 C 14.14 104.07 11.55 104.18 8.97 104.28 M 2.32 105.16 C 2.13 113.13 2.27 121.10 2.21 129.06 C 5.68 126.09 9.27 123.24 13.10 120.73 C 10.35 115.84 7.81 110.80 6.34 105.36 C 5.00 105.29 3.66 105.22 2.32 105.16 M 42.28 115.19 C 37.62 118.23 32.89 121.17 28.29 124.30 C 33.75 130.71 40.48 135.97 47.75 140.19 C 50.28 141.62 52.53 143.49 54.47 145.66 C 43.80 141.33 35.26 133.31 26.88 125.65 C 19.25 132.42 12.71 140.30 5.32 147.32 C 3.07 149.19 2.21 151.99 1.96 154.81 C 7.50 153.77 13.23 152.33 17.75 148.78 C 21.37 145.84 23.73 141.75 26.36 137.98 C 30.74 140.47 34.86 143.47 39.54 145.42 C 47.29 148.62 55.58 150.46 63.95 150.94 C 60.88 146.38 57.50 142.03 54.68 137.30 C 52.69 134.13 50.73 130.57 47.21 128.89 C 44.52 127.57 41.78 126.30 39.34 124.54 C 44.59 122.06 50.08 119.60 53.73 114.87 C 51.87 113.92 50.10 112.60 47.99 112.27 C 45.91 112.84 44.10 114.07 42.28 115.19 M 115.30 132.95 C 114.08 136.85 112.74 140.72 111.82 144.70 C 110.09 152.31 111.45 160.13 111.75 167.82 C 102.41 171.14 93.23 175.87 86.83 183.67 C 91.45 185.68 96.08 187.92 101.10 188.74 C 106.07 189.53 110.98 188.02 115.81 187.04 C 114.77 192.30 113.31 197.56 113.54 202.97 C 113.63 207.71 114.72 212.35 116.11 216.86 C 119.96 213.47 123.58 209.83 127.16 206.16 C 129.12 204.10 131.13 201.88 131.91 199.07 C 132.74 196.14 132.95 193.08 133.32 190.08 C 138.93 192.84 144.44 196.10 150.74 196.98 C 150.71 195.12 150.69 193.27 150.66 191.42 C 142.88 187.53 135.32 183.14 127.24 179.89 C 125.73 187.64 124.52 195.51 121.88 202.98 C 121.09 205.34 119.57 207.34 118.04 209.26 C 119.24 204.27 121.29 199.55 122.57 194.58 C 123.90 189.74 124.70 184.77 125.26 179.78 C 113.83 180.24 102.64 182.99 91.23 183.43 C 95.31 181.15 100.06 181.14 104.55 180.41 C 111.43 179.31 118.38 178.59 125.20 177.10 C 123.51 170.75 121.46 164.49 119.79 158.13 C 118.21 152.06 116.08 146.03 116.02 139.68 C 118.79 144.21 119.08 149.60 120.47 154.61 C 122.44 161.85 124.39 169.12 127.12 176.13 C 133.13 171.90 138.22 166.56 144.05 162.10 C 146.23 160.31 148.65 158.71 150.35 156.42 C 150.96 154.32 150.82 152.09 150.94 149.93 C 147.88 150.28 144.69 150.44 141.90 151.88 C 138.17 153.71 135.38 156.90 131.96 159.19 C 131.63 159.04 130.95 158.76 130.62 158.62 C 129.36 154.53 129.25 149.97 126.62 146.41 C 123.20 141.64 119.30 137.23 115.30 132.95 M 135.40 171.34 C 133.02 173.36 130.81 175.57 128.68 177.83 C 135.91 182.14 143.60 185.62 150.92 189.76 C 150.90 186.03 150.78 182.31 150.52 178.59 C 148.95 177.59 147.39 176.58 145.83 175.56 C 147.51 173.71 149.54 172.03 150.56 169.69 C 151.25 166.12 150.78 162.45 150.65 158.85 C 145.18 162.53 140.45 167.14 135.40 171.34 M 53.40 171.41 C 49.00 175.26 46.76 180.80 43.39 185.46 C 35.13 178.54 24.61 173.86 13.65 174.65 C 14.39 180.94 15.37 187.57 19.15 192.85 C 22.41 197.32 28.20 198.46 32.48 201.65 C 26.74 204.43 20.48 206.39 15.54 210.58 C 11.02 214.38 7.25 219.03 4.00 223.95 C 2.14 226.49 2.25 229.74 2.14 232.74 C 10.23 232.06 18.36 231.12 26.22 229.04 C 33.66 227.04 39.79 222.20 46.09 218.00 C 47.49 223.49 48.05 229.27 50.50 234.44 C 51.29 235.89 52.08 237.56 53.60 238.37 C 55.24 238.76 56.93 238.84 58.61 239.01 C 56.52 227.61 53.77 216.23 49.04 205.61 C 40.31 209.43 32.07 214.23 23.63 218.64 C 17.69 221.68 12.41 226.01 6.01 228.12 C 8.49 225.83 11.26 223.86 14.21 222.22 C 22.32 217.64 30.40 212.99 38.74 208.83 C 41.67 207.36 44.54 205.76 47.36 204.08 C 42.22 199.03 36.34 194.83 30.89 190.14 C 26.54 186.41 21.78 183.08 18.08 178.64 C 23.61 180.77 27.44 185.44 31.99 189.00 C 37.78 193.55 43.23 198.50 49.07 202.98 C 56.07 192.97 61.18 181.82 67.25 171.25 C 68.27 169.61 69.54 168.15 70.83 166.72 C 68.95 172.48 65.61 177.57 62.79 182.88 C 59.00 189.91 54.67 196.64 51.12 203.80 C 61.09 205.16 70.99 207.01 80.97 208.26 C 83.88 208.59 86.68 209.50 89.32 210.75 C 83.47 210.98 77.73 209.77 72.01 208.77 C 65.03 207.62 58.09 206.21 51.03 205.63 C 54.93 216.42 58.16 227.44 60.36 238.70 C 61.01 238.73 62.31 238.78 62.96 238.81 C 66.03 231.48 64.34 223.43 64.81 215.74 C 69.72 216.77 74.84 218.24 79.83 216.84 C 84.99 215.51 90.05 213.84 95.16 212.32 C 91.03 207.55 85.67 204.11 80.71 200.30 C 76.41 197.00 70.95 196.14 65.74 195.33 C 67.45 188.58 73.17 183.76 74.92 177.03 C 76.20 171.74 75.90 166.25 75.88 160.86 C 67.93 163.16 59.56 165.58 53.40 171.41 M 150.08 174.28 L 149.67 174.99 L 150.09 175.71 L 150.91 175.71 L 151.32 174.99 L 150.91 174.28 L 150.08 174.28 M 28.17 231.09 C 19.80 233.89 10.96 234.75 2.21 235.47 C 2.22 236.53 2.22 237.58 2.22 238.64 C 18.02 238.82 33.83 238.47 49.64 238.83 C 46.81 233.99 45.49 228.51 44.55 223.04 C 39.19 225.91 33.98 229.20 28.17 231.09 Z" />
</g>
<g id="#632c19ff">
<path fill="#632c19" opacity="1.00" d=" M 89.11 0.00 L 93.96 0.00 C 95.07 0.51 96.19 1.03 97.30 1.54 C 94.80 1.75 92.30 2.06 89.81 2.34 C 89.80 3.08 89.80 4.55 89.79 5.28 C 89.58 3.52 89.34 1.76 89.11 0.00 Z" />
</g>
<g id="#010100ff">
<path fill="#010100" opacity="1.00" d=" M 93.96 0.00 L 100.13 0.00 C 104.07 0.64 107.99 1.54 112.00 1.53 C 116.01 1.58 119.94 0.67 123.87 0.00 L 127.99 0.00 C 127.41 0.40 126.26 1.19 125.69 1.59 C 122.89 3.71 119.77 6.15 119.13 9.83 C 118.41 13.61 117.97 17.49 116.42 21.06 C 113.86 16.72 112.35 11.76 109.22 7.77 C 106.01 4.50 101.36 3.38 97.30 1.54 C 96.19 1.03 95.07 0.51 93.96 0.00 M 106.09 1.87 C 110.27 4.14 113.24 7.91 115.42 12.06 C 116.69 8.56 118.17 5.13 119.95 1.85 C 115.33 1.88 110.71 1.96 106.09 1.87 Z" />
</g>
<g id="#717171ff">
<path fill="#717171" opacity="1.00" d=" M 100.13 0.00 L 123.87 0.00 C 119.94 0.67 116.01 1.58 112.00 1.53 C 107.99 1.54 104.07 0.64 100.13 0.00 Z" />
</g>
<g id="#652d1aff">
<path fill="#652d1a" opacity="1.00" d=" M 127.99 0.00 L 138.63 0.00 C 138.80 1.65 138.98 3.31 139.13 4.96 C 138.58 4.14 137.96 3.37 137.29 2.65 C 135.93 2.41 134.55 2.51 133.19 2.56 C 132.76 2.59 131.92 2.64 131.49 2.67 C 129.54 2.39 127.61 1.99 125.69 1.59 C 126.26 1.19 127.41 0.40 127.99 0.00 Z" />
</g>
<g id="#ffffffff">
<path fill="#ffffff" opacity="1.00" d=" M 2.23 2.01 C 30.23 1.65 58.24 2.07 86.25 1.80 C 87.22 6.49 87.67 11.30 89.02 15.92 C 90.43 20.73 93.59 24.74 96.85 28.46 C 91.64 28.62 86.13 28.73 81.46 31.34 C 76.11 34.37 71.82 38.96 68.35 43.99 C 74.10 47.25 80.36 49.95 87.02 50.41 C 91.13 50.72 94.93 48.84 98.55 47.17 C 96.68 50.86 95.16 54.79 94.85 58.95 C 94.19 67.44 95.49 75.98 97.66 84.18 C 103.68 81.43 108.37 76.60 112.95 71.96 C 116.41 68.56 117.80 63.80 118.56 59.14 C 120.58 63.04 122.33 67.36 125.78 70.24 C 130.39 73.14 136.08 73.30 141.37 73.42 C 140.94 68.30 140.58 63.16 139.59 58.11 C 138.90 54.59 136.89 51.55 135.05 48.54 C 140.40 48.60 145.68 47.58 150.72 45.79 C 150.82 79.65 150.89 113.52 150.69 147.37 C 147.51 147.80 144.27 148.14 141.27 149.36 C 138.10 150.64 135.38 152.76 132.64 154.77 C 131.78 151.38 131.06 147.84 129.09 144.89 C 127.52 142.52 125.55 140.45 123.74 138.27 C 120.56 134.65 118.03 130.31 113.76 127.83 C 112.47 132.83 110.87 137.75 109.51 142.73 C 107.37 150.25 108.86 158.08 108.95 165.74 C 102.30 168.40 95.87 171.74 90.34 176.33 C 87.34 178.56 84.68 181.25 82.78 184.49 C 87.09 186.52 91.35 188.69 95.86 190.24 C 101.01 192.07 106.54 190.87 111.85 190.70 C 109.78 200.63 110.75 211.11 114.43 220.54 C 116.18 221.37 117.27 219.40 118.47 218.49 C 122.76 214.11 127.29 209.93 131.28 205.26 C 133.89 202.21 134.76 198.19 135.59 194.37 C 140.26 197.03 145.29 199.18 150.71 199.62 C 150.89 212.64 150.80 225.67 150.75 238.70 C 122.60 238.70 94.44 238.59 66.29 238.75 C 67.50 232.33 67.70 225.78 67.46 219.26 C 69.94 219.84 72.43 220.53 75.00 220.62 C 78.02 220.69 80.88 219.60 83.71 218.69 C 89.29 216.77 95.04 215.28 100.44 212.85 C 95.61 207.80 89.47 204.33 84.16 199.84 C 80.00 196.22 74.77 194.31 69.68 192.41 C 73.02 187.64 76.53 182.71 77.66 176.87 C 78.94 170.26 78.74 163.48 78.58 156.78 C 73.28 158.06 68.32 160.33 63.25 162.29 C 58.08 164.33 53.21 167.31 49.39 171.38 C 46.72 174.24 44.81 177.68 42.88 181.04 C 39.02 178.91 35.27 176.54 31.17 174.88 C 24.51 172.29 17.27 171.68 10.19 171.92 C 11.76 178.56 12.02 185.65 15.18 191.82 C 17.56 196.45 22.21 199.14 26.65 201.48 C 21.44 203.66 16.32 206.27 12.07 210.05 C 8.39 213.34 5.43 217.32 2.25 221.06 C 2.29 199.87 2.12 178.67 2.33 157.47 C 7.09 156.46 12.02 155.65 16.34 153.29 C 20.97 150.61 24.08 146.12 27.24 141.95 C 33.18 145.21 39.14 148.63 45.72 150.46 C 53.67 152.73 62.02 154.08 70.30 153.24 C 67.20 149.51 63.56 146.21 60.89 142.14 C 58.56 138.73 56.82 134.95 54.40 131.60 C 52.24 128.61 49.08 126.62 46.13 124.49 C 50.27 121.60 54.48 118.72 58.06 115.14 C 60.30 110.73 62.00 106.05 63.97 101.50 C 62.20 101.14 60.42 100.80 58.65 100.45 C 58.81 94.85 57.09 89.49 54.83 84.44 C 58.26 84.77 61.65 85.37 65.09 85.62 C 68.61 85.95 71.99 84.61 75.11 83.15 C 80.33 80.58 85.55 77.71 89.54 73.38 C 82.40 70.06 75.84 65.71 68.90 62.04 C 64.67 59.72 59.79 59.35 55.09 58.97 C 56.88 54.54 58.32 49.89 58.40 45.06 C 58.56 37.22 58.94 29.37 58.67 21.53 C 55.59 23.05 52.79 25.02 49.97 26.96 C 44.86 30.40 39.29 33.48 35.36 38.34 C 32.13 42.66 31.18 48.12 29.82 53.21 C 25.36 50.95 21.00 48.04 15.91 47.48 C 11.37 46.98 6.80 47.18 2.24 47.11 C 2.22 32.07 2.24 17.04 2.23 2.01 Z" />
<path fill="#ffffff" opacity="1.00" d=" M 106.09 1.87 C 110.71 1.96 115.33 1.88 119.95 1.85 C 118.17 5.13 116.69 8.56 115.42 12.06 C 113.24 7.91 110.27 4.14 106.09 1.87 Z" />
<path fill="#ffffff" opacity="1.00" d=" M 141.69 1.79 C 144.73 1.81 147.76 1.87 150.80 1.96 C 150.83 11.96 150.75 21.96 150.84 31.96 C 146.52 28.89 141.59 26.83 136.44 25.59 C 138.76 22.34 141.40 18.96 141.69 14.82 C 142.02 10.48 141.67 6.13 141.69 1.79 Z" />
<path fill="#ffffff" opacity="1.00" d=" M 2.20 54.86 C 3.40 59.83 4.24 65.29 7.80 69.22 C 10.71 72.05 14.76 73.13 18.40 74.70 C 15.87 77.06 13.36 79.44 10.91 81.87 C 9.26 81.67 7.61 81.45 5.96 81.26 C 5.91 84.73 6.19 88.24 5.63 91.69 C 4.93 94.96 3.47 98.00 2.22 101.08 C 2.23 85.67 2.27 70.26 2.20 54.86 Z" />
<path fill="#ffffff" opacity="1.00" d=" M 31.52 93.69 C 34.21 96.70 36.23 100.22 37.91 103.87 C 36.06 104.90 34.24 105.99 32.43 107.09 C 31.24 103.73 30.02 100.37 28.67 97.07 C 29.62 95.94 30.57 94.81 31.52 93.69 Z" />
<path fill="#ffffff" opacity="1.00" d=" M 2.32 105.16 C 3.66 105.22 5.00 105.29 6.34 105.36 C 7.81 110.80 10.35 115.84 13.10 120.73 C 9.27 123.24 5.68 126.09 2.21 129.06 C 2.27 121.10 2.13 113.13 2.32 105.16 Z" />
<path fill="#ffffff" opacity="1.00" d=" M 28.17 231.09 C 33.98 229.20 39.19 225.91 44.55 223.04 C 45.49 228.51 46.81 233.99 49.64 238.83 C 33.83 238.47 18.02 238.82 2.22 238.64 C 2.22 237.58 2.22 236.53 2.21 235.47 C 10.96 234.75 19.80 233.89 28.17 231.09 Z" />
</g>
<g id="#d96038ff">
<path fill="#d96038" opacity="1.00" d=" M 89.81 2.34 C 92.30 2.06 94.80 1.75 97.30 1.54 C 101.36 3.38 106.01 4.50 109.22 7.77 C 112.35 11.76 113.86 16.72 116.42 21.06 C 117.97 17.49 118.41 13.61 119.13 9.83 C 119.77 6.15 122.89 3.71 125.69 1.59 C 127.61 1.99 129.54 2.39 131.49 2.67 C 126.05 12.54 121.08 22.68 115.12 32.26 C 110.10 25.48 105.26 18.56 100.09 11.90 C 98.06 9.27 95.67 6.95 93.14 4.81 C 99.08 14.86 107.68 23.05 113.41 33.26 C 105.10 35.25 96.65 36.56 88.29 38.36 C 85.54 38.91 83.01 40.18 80.61 41.60 C 87.90 41.12 94.72 38.33 101.86 37.01 C 105.65 36.27 109.51 35.94 113.36 35.65 C 110.15 47.37 103.61 58.35 103.62 70.78 C 104.91 67.23 105.98 63.60 107.00 59.96 C 109.20 52.09 112.22 44.48 115.38 36.96 C 121.52 45.72 125.55 56.17 133.96 63.16 C 128.66 53.92 121.39 45.82 117.53 35.76 C 127.30 35.68 136.72 38.99 146.49 38.66 C 143.77 37.47 140.95 36.45 137.99 36.11 C 131.01 35.26 124.03 34.43 117.04 33.64 C 121.95 23.04 128.34 13.20 133.19 2.56 C 134.55 2.51 135.93 2.41 137.29 2.65 C 137.96 3.37 138.58 4.14 139.13 4.96 C 139.39 8.87 139.54 12.88 138.60 16.72 C 137.42 20.57 134.17 23.22 131.58 26.13 C 136.97 28.38 142.79 29.92 147.58 33.39 C 150.11 35.14 151.65 38.39 150.64 41.41 C 148.76 43.71 145.77 44.75 142.94 45.25 C 137.77 46.02 132.67 44.41 127.67 43.32 C 130.10 46.86 132.90 50.14 135.14 53.80 C 138.17 58.83 137.80 64.94 138.06 70.59 C 134.88 70.11 131.55 69.93 128.62 68.47 C 125.58 66.86 123.80 63.75 122.23 60.82 C 120.53 57.54 118.75 54.30 116.78 51.18 C 115.80 56.02 115.76 61.14 113.73 65.71 C 110.36 71.70 104.90 76.15 99.37 80.07 C 98.08 73.12 97.02 66.02 97.64 58.94 C 98.19 53.14 101.12 47.99 103.18 42.65 C 98.35 44.24 93.79 46.72 88.76 47.68 C 82.99 48.48 77.69 45.42 72.71 42.94 C 76.06 38.88 79.62 34.53 84.76 32.73 C 90.09 30.94 95.81 31.15 101.35 30.59 C 98.86 27.12 96.09 23.84 93.91 20.15 C 91.28 15.64 90.29 10.42 89.79 5.28 C 89.80 4.55 89.80 3.08 89.81 2.34 Z" />
<path fill="#d96038" opacity="1.00" d=" M 53.40 171.41 C 59.56 165.58 67.93 163.16 75.88 160.86 C 75.90 166.25 76.20 171.74 74.92 177.03 C 73.17 183.76 67.45 188.58 65.74 195.33 C 70.95 196.14 76.41 197.00 80.71 200.30 C 85.67 204.11 91.03 207.55 95.16 212.32 C 90.05 213.84 84.99 215.51 79.83 216.84 C 74.84 218.24 69.72 216.77 64.81 215.74 C 64.34 223.43 66.03 231.48 62.96 238.81 C 62.31 238.78 61.01 238.73 60.36 238.70 C 58.16 227.44 54.93 216.42 51.03 205.63 C 58.09 206.21 65.03 207.62 72.01 208.77 C 77.73 209.77 83.47 210.98 89.32 210.75 C 86.68 209.50 83.88 208.59 80.97 208.26 C 70.99 207.01 61.09 205.16 51.12 203.80 C 54.67 196.64 59.00 189.91 62.79 182.88 C 65.61 177.57 68.95 172.48 70.83 166.72 C 69.54 168.15 68.27 169.61 67.25 171.25 C 61.18 181.82 56.07 192.97 49.07 202.98 C 43.23 198.50 37.78 193.55 31.99 189.00 C 27.44 185.44 23.61 180.77 18.08 178.64 C 21.78 183.08 26.54 186.41 30.89 190.14 C 36.34 194.83 42.22 199.03 47.36 204.08 C 44.54 205.76 41.67 207.36 38.74 208.83 C 30.40 212.99 22.32 217.64 14.21 222.22 C 11.26 223.86 8.49 225.83 6.01 228.12 C 12.41 226.01 17.69 221.68 23.63 218.64 C 32.07 214.23 40.31 209.43 49.04 205.61 C 53.77 216.23 56.52 227.61 58.61 239.01 C 56.93 238.84 55.24 238.76 53.60 238.37 C 52.08 237.56 51.29 235.89 50.50 234.44 C 48.05 229.27 47.49 223.49 46.09 218.00 C 39.79 222.20 33.66 227.04 26.22 229.04 C 18.36 231.12 10.23 232.06 2.14 232.74 C 2.25 229.74 2.14 226.49 4.00 223.95 C 7.25 219.03 11.02 214.38 15.54 210.58 C 20.48 206.39 26.74 204.43 32.48 201.65 C 28.20 198.46 22.41 197.32 19.15 192.85 C 15.37 187.57 14.39 180.94 13.65 174.65 C 24.61 173.86 35.13 178.54 43.39 185.46 C 46.76 180.80 49.00 175.26 53.40 171.41 Z" />
</g>
<g id="#020100ff">
<path fill="#020100" opacity="1.00" d=" M 131.49 2.67 C 131.92 2.64 132.76 2.59 133.19 2.56 C 128.34 13.20 121.95 23.04 117.04 33.64 C 124.03 34.43 131.01 35.26 137.99 36.11 C 140.95 36.45 143.77 37.47 146.49 38.66 C 136.72 38.99 127.30 35.68 117.53 35.76 C 121.39 45.82 128.66 53.92 133.96 63.16 C 125.55 56.17 121.52 45.72 115.38 36.96 C 112.22 44.48 109.20 52.09 107.00 59.96 C 105.98 63.60 104.91 67.23 103.62 70.78 C 103.61 58.35 110.15 47.37 113.36 35.65 C 109.51 35.94 105.65 36.27 101.86 37.01 C 94.72 38.33 87.90 41.12 80.61 41.60 C 83.01 40.18 85.54 38.91 88.29 38.36 C 96.65 36.56 105.10 35.25 113.41 33.26 C 107.68 23.05 99.08 14.86 93.14 4.81 C 95.67 6.95 98.06 9.27 100.09 11.90 C 105.26 18.56 110.10 25.48 115.12 32.26 C 121.08 22.68 126.05 12.54 131.49 2.67 Z" />
</g>
<g id="#ffe000ff">
<path fill="#ffe000" opacity="1.00" d=" M 40.11 37.12 C 44.89 32.84 50.54 29.69 55.88 26.16 C 55.74 32.98 55.87 39.81 55.55 46.62 C 55.28 52.07 52.64 56.95 50.76 61.96 C 54.77 62.13 58.80 61.95 62.78 62.55 C 66.53 63.08 69.75 65.21 72.90 67.16 C 76.66 69.56 80.51 71.83 84.33 74.15 C 79.38 77.88 74.01 81.48 67.83 82.69 C 61.39 83.42 55.14 81.13 48.82 80.28 C 51.08 85.53 55.49 90.02 55.72 95.99 C 56.03 101.48 55.67 106.99 55.64 112.49 C 49.45 110.43 43.20 107.09 39.75 101.32 C 37.50 97.45 35.43 93.47 32.88 89.78 C 29.18 92.78 25.93 96.41 21.68 98.65 C 16.48 101.14 10.64 101.64 4.98 102.10 C 6.79 96.74 8.80 91.42 11.50 86.44 C 14.42 80.87 20.04 77.61 24.24 73.14 C 18.98 71.28 12.28 71.21 8.69 66.34 C 5.76 61.33 5.04 55.41 3.55 49.87 C 9.44 49.48 15.68 49.26 21.14 51.90 C 24.60 53.62 27.92 55.62 31.50 57.11 C 33.14 50.07 34.59 42.29 40.11 37.12 M 48.28 38.24 C 43.18 49.35 38.07 60.61 35.64 72.67 C 31.71 69.11 27.62 65.72 23.30 62.64 C 18.67 59.41 14.29 55.57 8.80 53.86 C 12.06 57.89 16.81 60.14 20.94 63.10 C 25.71 66.54 30.66 69.92 34.28 74.64 C 29.50 78.41 24.52 81.94 20.10 86.14 C 16.27 89.82 11.96 93.25 9.62 98.15 C 14.34 95.13 17.73 90.58 22.02 87.06 C 26.52 83.31 30.98 79.51 35.71 76.04 C 39.57 84.82 43.00 93.82 47.78 102.16 C 48.75 103.86 50.28 105.12 51.77 106.35 C 50.07 101.64 47.29 97.44 45.18 92.92 C 42.46 87.07 39.67 81.25 37.58 75.15 C 48.74 74.71 59.93 74.89 71.08 75.44 C 73.55 75.61 76.00 75.11 78.35 74.39 C 64.74 72.36 50.87 72.86 37.18 73.73 C 39.67 61.32 44.80 49.62 50.44 38.35 C 51.51 36.32 51.96 34.05 52.14 31.78 C 50.65 33.80 49.32 35.95 48.28 38.24 Z" />
</g>
<g id="#312c00ff">
<path fill="#312c00" opacity="1.00" d=" M 48.28 38.24 C 49.32 35.95 50.65 33.80 52.14 31.78 C 51.96 34.05 51.51 36.32 50.44 38.35 C 44.80 49.62 39.67 61.32 37.18 73.73 C 50.87 72.86 64.74 72.36 78.35 74.39 C 76.00 75.11 73.55 75.61 71.08 75.44 C 59.93 74.89 48.74 74.71 37.58 75.15 C 39.67 81.25 42.46 87.07 45.18 92.92 C 47.29 97.44 50.07 101.64 51.77 106.35 C 50.28 105.12 48.75 103.86 47.78 102.16 C 43.00 93.82 39.57 84.82 35.71 76.04 C 30.98 79.51 26.52 83.31 22.02 87.06 C 17.73 90.58 14.34 95.13 9.62 98.15 C 11.96 93.25 16.27 89.82 20.10 86.14 C 24.52 81.94 29.50 78.41 34.28 74.64 C 30.66 69.92 25.71 66.54 20.94 63.10 C 16.81 60.14 12.06 57.89 8.80 53.86 C 14.29 55.57 18.67 59.41 23.30 62.64 C 27.62 65.72 31.71 69.11 35.64 72.67 C 38.07 60.61 43.18 49.35 48.28 38.24 Z" />
</g>
<g id="#f7f7f7ff">
<path fill="#f7f7f7" opacity="1.00" d=" M 0.00 49.67 C 1.53 57.36 0.97 65.22 1.00 73.00 C 1.00 85.33 1.00 97.67 1.00 110.00 C 0.98 117.51 1.51 125.09 0.00 132.49 L 0.00 49.67 Z" />
</g>
<g id="#383838ff">
<path fill="#383838" opacity="1.00" d=" M 8.29 85.29 L 8.73 85.29 L 8.74 85.73 L 8.29 85.74 L 8.29 85.29 Z" />
</g>
<g id="#858585ff">
<path fill="#858585" opacity="1.00" d=" M 18.24 103.22 C 21.07 101.75 23.93 100.35 26.86 99.09 C 28.10 103.27 29.44 107.43 30.67 111.61 C 33.45 109.82 36.08 107.70 39.18 106.44 C 41.83 106.94 43.59 109.31 45.60 110.92 C 39.75 115.24 33.67 119.25 27.35 122.86 C 24.63 116.16 21.32 109.74 18.24 103.22 Z" />
<path fill="#858585" opacity="1.00" d=" M 8.97 104.28 C 11.55 104.18 14.14 104.07 16.72 103.93 C 19.28 109.22 22.00 114.44 24.30 119.85 C 24.84 121.34 25.59 122.91 25.35 124.54 C 24.27 126.04 22.87 127.27 21.53 128.54 C 14.73 134.63 8.93 141.72 2.27 147.94 C 2.24 143.67 1.93 139.38 2.42 135.12 C 2.60 132.90 4.20 131.20 5.68 129.69 C 9.02 126.34 13.24 124.12 17.36 121.89 C 14.03 116.29 10.27 110.78 8.97 104.28 Z" />
<path fill="#858585" opacity="1.00" d=" M 42.28 115.19 C 44.10 114.07 45.91 112.84 47.99 112.27 C 50.10 112.60 51.87 113.92 53.73 114.87 C 50.08 119.60 44.59 122.06 39.34 124.54 C 41.78 126.30 44.52 127.57 47.21 128.89 C 50.73 130.57 52.69 134.13 54.68 137.30 C 57.50 142.03 60.88 146.38 63.95 150.94 C 55.58 150.46 47.29 148.62 39.54 145.42 C 34.86 143.47 30.74 140.47 26.36 137.98 C 23.73 141.75 21.37 145.84 17.75 148.78 C 13.23 152.33 7.50 153.77 1.96 154.81 C 2.21 151.99 3.07 149.19 5.32 147.32 C 12.71 140.30 19.25 132.42 26.88 125.65 C 35.26 133.31 43.80 141.33 54.47 145.66 C 52.53 143.49 50.28 141.62 47.75 140.19 C 40.48 135.97 33.75 130.71 28.29 124.30 C 32.89 121.17 37.62 118.23 42.28 115.19 Z" />
<path fill="#858585" opacity="1.00" d=" M 115.30 132.95 C 119.30 137.23 123.20 141.64 126.62 146.41 C 129.25 149.97 129.36 154.53 130.62 158.62 C 130.95 158.76 131.63 159.04 131.96 159.19 C 135.38 156.90 138.17 153.71 141.90 151.88 C 144.69 150.44 147.88 150.28 150.94 149.93 C 150.82 152.09 150.96 154.32 150.35 156.42 C 148.65 158.71 146.23 160.31 144.05 162.10 C 138.22 166.56 133.13 171.90 127.12 176.13 C 124.39 169.12 122.44 161.85 120.47 154.61 C 119.08 149.60 118.79 144.21 116.02 139.68 C 116.08 146.03 118.21 152.06 119.79 158.13 C 121.46 164.49 123.51 170.75 125.20 177.10 C 118.38 178.59 111.43 179.31 104.55 180.41 C 100.06 181.14 95.31 181.15 91.23 183.43 C 102.64 182.99 113.83 180.24 125.26 179.78 C 124.70 184.77 123.90 189.74 122.57 194.58 C 121.29 199.55 119.24 204.27 118.04 209.26 C 119.57 207.34 121.09 205.34 121.88 202.98 C 124.52 195.51 125.73 187.64 127.24 179.89 C 135.32 183.14 142.88 187.53 150.66 191.42 C 150.69 193.27 150.71 195.12 150.74 196.98 C 144.44 196.10 138.93 192.84 133.32 190.08 C 132.95 193.08 132.74 196.14 131.91 199.07 C 131.13 201.88 129.12 204.10 127.16 206.16 C 123.58 209.83 119.96 213.47 116.11 216.86 C 114.72 212.35 113.63 207.71 113.54 202.97 C 113.31 197.56 114.77 192.30 115.81 187.04 C 110.98 188.02 106.07 189.53 101.10 188.74 C 96.08 187.92 91.45 185.68 86.83 183.67 C 93.23 175.87 102.41 171.14 111.75 167.82 C 111.45 160.13 110.09 152.31 111.82 144.70 C 112.74 140.72 114.08 136.85 115.30 132.95 Z" />
<path fill="#858585" opacity="1.00" d=" M 135.40 171.34 C 140.45 167.14 145.18 162.53 150.65 158.85 C 150.78 162.45 151.25 166.12 150.56 169.69 C 149.54 172.03 147.51 173.71 145.83 175.56 C 147.39 176.58 148.95 177.59 150.52 178.59 C 150.78 182.31 150.90 186.03 150.92 189.76 C 143.60 185.62 135.91 182.14 128.68 177.83 C 130.81 175.57 133.02 173.36 135.40 171.34 Z" />
</g>
<g id="#494949ff">
<path fill="#494949" opacity="1.00" d=" M 58.11 103.13 C 58.71 103.17 59.91 103.26 60.51 103.30 C 59.69 104.92 58.92 106.57 58.23 108.25 C 58.20 106.54 58.16 104.84 58.11 103.13 Z" />
</g>
<g id="#808080ff">
<path fill="#808080" opacity="1.00" d=" M 0.00 135.60 C 1.35 142.11 1.46 148.81 0.00 155.31 L 0.00 135.60 Z" />
</g>
<g id="#5e5e5eff">
<path fill="#5e5e5e" opacity="1.00" d=" M 150.08 174.28 L 150.91 174.28 L 151.32 174.99 L 150.91 175.71 L 150.09 175.71 L 149.67 174.99 L 150.08 174.28 Z" />
</g>
<g id="#984327ff">
<path fill="#984327" opacity="1.00" d=" M 0.00 229.85 C 2.22 229.53 2.07 232.98 0.00 232.93 L 0.00 229.85 Z" />
</g>
<g id="#e4e4e4ff">
<path fill="#e4e4e4" opacity="1.00" d=" M 0.00 235.04 C 1.36 236.29 2.04 238.53 0.57 240.00 L 0.00 240.00 L 0.00 235.04 Z" />
</g>
</svg>
