<?xml version="1.0" encoding="UTF-8" ?>
<!DOCTYPE svg PUBLIC "-//W3C//DTD SVG 1.1//EN" "http://www.w3.org/Graphics/SVG/1.1/DTD/svg11.dtd">
<svg width="152pt" height="240pt" viewBox="0 0 152 240" version="1.1" xmlns="http://www.w3.org/2000/svg">
<g id="#8c8c8cff">
<path fill="#8c8c8c" opacity="1.00" d=" M 0.00 0.00 L 29.38 0.00 C 20.19 2.15 10.75 0.89 1.42 1.26 C 0.94 3.06 0.44 4.85 0.00 6.65 L 0.00 0.00 Z" />
</g>
<g id="#010100ff">
<path fill="#010100" opacity="1.00" d=" M 29.38 0.00 L 32.51 0.00 C 36.40 1.23 40.48 1.25 44.37 0.00 L 46.70 0.00 C 50.75 0.81 54.84 1.53 58.99 1.44 C 71.33 1.22 83.66 1.35 96.00 1.33 C 102.62 1.29 109.26 1.52 115.86 0.87 C 127.89 1.66 139.96 1.37 152.00 1.12 L 152.00 240.00 L 1.01 240.00 C 0.98 213.33 1.01 186.66 1.00 160.00 C 0.94 152.05 1.56 144.03 0.00 136.19 L 0.00 134.25 C 2.25 133.01 2.26 129.59 0.00 128.36 L 0.00 126.65 C 2.26 125.40 2.23 121.99 0.00 120.73 L 0.00 117.84 C 0.63 114.65 0.60 111.39 0.00 108.20 L 0.00 81.83 C 1.53 72.17 1.64 62.20 0.00 52.54 L 0.00 50.28 C 0.62 46.47 0.64 42.61 0.00 38.81 L 0.00 37.22 C 0.67 34.06 0.67 30.83 0.00 27.67 L 0.00 25.31 C 0.80 21.34 0.77 17.27 0.00 13.30 L 0.00 12.27 C 2.35 12.29 2.33 8.64 0.00 8.63 L 0.00 6.65 C 0.44 4.85 0.94 3.06 1.42 1.26 C 10.75 0.89 20.19 2.15 29.38 0.00 M 2.14 2.10 C 2.18 3.21 2.21 4.33 2.24 5.44 C 5.99 5.82 9.88 6.09 13.31 7.81 C 16.99 9.63 20.24 12.17 23.52 14.61 C 24.28 10.17 25.68 5.87 27.67 1.83 C 19.16 2.00 10.64 1.58 2.14 2.10 M 31.03 1.90 C 27.32 6.93 26.45 13.20 24.93 19.09 C 20.72 15.89 16.70 12.32 11.83 10.14 C 8.84 8.75 5.51 8.44 2.27 8.08 C 2.27 9.94 2.28 11.80 2.29 13.66 C 12.05 19.70 21.73 25.87 30.90 32.79 C 33.64 22.57 35.65 12.17 37.88 1.83 C 35.60 1.86 33.31 1.88 31.03 1.90 M 39.89 1.74 C 37.10 12.09 34.96 22.61 33.01 33.15 C 40.86 32.02 48.56 30.07 56.31 28.39 C 61.36 27.32 66.26 25.18 71.51 25.49 C 66.20 27.99 60.38 29.03 54.74 30.53 C 47.64 32.36 40.38 33.53 33.23 35.12 C 38.87 43.25 45.80 50.83 49.06 60.33 C 47.13 58.37 45.48 56.17 44.16 53.76 C 40.74 47.61 36.61 41.88 31.95 36.62 C 27.81 45.84 24.58 55.47 22.05 65.26 C 21.62 67.16 20.56 68.80 19.39 70.33 C 20.88 58.41 26.33 47.49 29.89 36.12 C 20.90 39.77 11.71 42.87 2.34 45.38 C 2.27 47.22 2.21 49.05 2.14 50.88 C 5.17 50.90 8.35 51.22 11.21 49.97 C 14.28 48.69 17.20 47.07 20.28 45.81 C 18.58 52.24 14.76 58.18 14.92 65.02 C 14.78 68.95 16.32 72.64 17.98 76.11 C 21.38 72.79 24.61 69.30 27.80 65.79 C 29.87 63.45 32.08 60.95 32.66 57.78 C 33.37 54.08 33.33 50.31 33.65 46.57 C 37.52 48.22 36.86 53.10 38.80 56.22 C 41.60 60.84 46.84 63.01 51.63 64.97 C 51.74 60.68 51.99 56.38 51.59 52.10 C 51.25 47.06 47.42 43.38 44.84 39.35 C 50.84 38.88 57.30 39.71 62.81 36.79 C 68.88 33.43 73.21 27.79 77.01 22.13 C 71.24 21.03 65.46 19.95 59.62 19.31 C 53.62 18.65 47.67 19.94 41.80 21.00 C 42.82 17.91 44.07 14.90 44.89 11.74 C 45.77 8.58 45.29 5.28 45.04 2.06 C 43.32 1.96 41.60 1.85 39.89 1.74 M 48.16 1.87 C 48.40 6.91 47.95 11.97 46.70 16.86 C 51.97 16.25 57.34 15.72 62.59 16.77 C 68.86 18.01 75.20 18.84 81.45 20.18 C 79.79 23.46 77.75 26.55 75.33 29.32 C 71.89 33.27 68.19 37.24 63.37 39.50 C 59.44 41.37 55.02 41.65 50.76 42.15 C 52.29 45.27 53.98 48.42 54.27 51.94 C 54.76 57.35 54.38 62.80 53.96 68.20 C 46.64 66.64 39.57 62.83 35.58 56.30 C 35.01 58.96 34.57 61.76 33.02 64.06 C 31.45 66.42 29.41 68.41 27.43 70.43 C 24.03 73.78 21.03 77.55 17.24 80.50 C 14.89 76.62 12.83 72.44 12.37 67.88 C 11.57 62.35 13.37 56.96 14.98 51.76 C 10.82 52.82 6.57 53.52 2.27 53.56 C 2.26 62.87 2.08 72.18 2.38 81.48 C 6.35 83.14 10.36 84.75 14.03 87.02 C 18.42 89.72 21.55 93.90 25.08 97.55 C 26.83 94.56 28.37 91.34 30.96 88.95 C 33.27 86.86 35.99 85.29 38.59 83.59 C 43.08 80.75 47.28 77.27 52.43 75.66 C 53.06 82.67 53.62 89.80 52.46 96.78 C 51.65 101.58 48.73 105.61 46.51 109.83 C 51.13 110.36 55.99 110.60 60.13 112.96 C 65.34 115.85 70.03 119.57 74.76 123.16 C 71.17 127.46 66.80 131.02 62.22 134.22 C 59.72 135.89 57.00 137.58 53.91 137.74 C 50.18 137.84 46.58 136.67 43.00 135.77 C 43.46 138.82 44.14 141.86 44.12 144.96 C 44.08 148.27 42.56 151.29 41.19 154.22 C 39.45 157.75 37.85 161.35 36.16 164.91 C 30.83 161.37 25.52 157.40 22.13 151.84 C 19.31 147.27 19.34 141.71 18.77 136.55 C 13.35 137.83 7.80 138.63 2.21 138.34 C 2.29 171.79 2.18 205.24 2.27 238.70 C 16.29 238.65 30.32 238.73 44.34 238.65 C 44.42 233.26 46.60 228.27 49.85 224.05 C 45.94 222.95 41.65 222.29 38.49 219.54 C 35.01 216.48 32.19 212.78 29.48 209.05 C 33.55 206.00 38.06 203.25 43.14 202.36 C 46.76 201.85 50.42 202.31 54.04 202.41 C 54.00 197.11 54.08 191.70 55.72 186.60 C 57.10 182.31 58.86 178.15 60.51 173.96 C 68.00 175.78 73.65 181.24 79.30 186.11 C 82.72 185.73 85.79 184.01 89.05 183.03 C 95.22 180.84 101.84 182.07 108.22 182.09 C 107.49 175.72 107.28 169.20 108.78 162.92 C 110.11 157.54 111.47 152.17 112.78 146.79 C 117.08 149.18 119.92 153.28 123.21 156.80 C 125.40 159.25 127.80 161.54 129.68 164.25 C 131.58 167.03 131.92 170.48 132.51 173.71 C 135.23 171.39 137.89 168.89 141.18 167.38 C 144.22 166.16 147.57 166.36 150.78 166.05 C 150.75 133.12 150.90 100.19 150.70 67.26 C 146.45 66.41 142.47 64.62 138.94 62.11 C 138.41 65.48 138.04 68.89 137.14 72.19 C 136.17 75.75 134.03 78.83 131.95 81.81 C 130.09 84.64 127.10 86.38 124.73 88.72 C 121.37 91.83 119.02 96.11 114.78 98.18 C 113.14 93.59 111.49 88.94 111.01 84.06 C 110.64 81.23 110.74 78.33 110.09 75.55 C 109.13 72.74 107.57 70.19 106.38 67.47 C 98.94 73.84 90.78 79.64 81.69 83.39 C 81.41 76.59 81.26 69.72 82.20 62.97 C 82.60 59.59 84.86 56.94 86.80 54.31 C 80.54 51.40 74.60 47.51 70.09 42.23 C 73.28 40.08 76.40 37.79 79.78 35.95 C 83.40 33.91 87.69 34.17 91.70 33.91 C 87.44 26.23 89.48 17.15 90.45 8.91 C 95.10 10.88 99.46 13.50 103.45 16.57 C 107.41 19.58 109.20 24.41 110.71 28.96 C 110.17 19.85 113.03 11.06 113.95 2.07 C 92.03 1.61 70.09 2.02 48.16 1.87 M 117.80 1.98 C 122.50 8.35 128.16 13.99 132.35 20.74 C 138.49 21.46 144.70 21.39 150.73 19.94 C 150.85 13.96 150.84 7.98 150.78 1.99 C 139.79 1.79 128.79 1.81 117.80 1.98 M 116.26 5.07 C 115.39 9.99 114.62 14.93 113.86 19.87 C 113.40 23.06 112.97 26.34 113.69 29.53 C 114.52 33.26 115.93 36.82 117.04 40.47 C 112.96 40.69 108.82 40.73 104.85 41.78 C 99.16 43.31 93.96 46.30 89.32 49.89 C 94.12 52.52 98.99 55.18 104.28 56.72 C 109.61 58.34 115.07 56.47 120.30 55.39 C 118.67 60.71 115.52 65.41 113.96 70.75 C 112.15 78.42 113.54 86.48 116.15 93.80 C 120.29 89.71 124.20 85.40 128.21 81.18 C 130.84 78.34 133.58 75.31 134.52 71.45 C 135.75 66.61 135.88 61.58 136.61 56.66 C 139.46 58.29 141.98 60.41 144.61 62.37 C 146.37 63.73 148.69 63.82 150.79 64.26 C 150.77 61.97 150.72 59.68 150.67 57.39 C 144.25 53.99 138.21 49.88 131.55 46.95 C 129.60 58.06 126.29 68.87 122.50 79.47 C 121.65 82.04 120.18 84.33 118.39 86.34 C 119.69 80.71 122.32 75.53 124.02 70.02 C 126.35 62.38 128.79 54.69 129.46 46.69 C 118.80 47.78 108.38 51.13 97.59 50.72 C 101.51 48.36 106.19 48.38 110.58 47.70 C 116.94 46.73 123.36 46.01 129.58 44.30 C 125.94 34.56 120.31 25.34 119.10 14.85 C 122.08 19.40 123.19 24.77 125.21 29.75 C 127.10 34.49 129.23 39.14 131.33 43.79 C 136.22 39.90 140.68 35.48 145.67 31.71 C 147.29 30.38 149.10 29.18 150.28 27.41 C 150.72 25.97 150.89 24.47 151.14 22.99 C 148.41 23.16 145.58 23.06 142.99 24.06 C 138.81 25.83 137.21 30.92 132.80 32.33 C 131.80 27.72 130.93 22.86 127.97 19.02 C 124.33 14.16 120.45 9.48 116.26 5.07 M 92.47 12.99 C 92.16 17.65 91.51 22.35 92.06 27.02 C 92.74 30.58 94.97 33.57 96.51 36.79 C 92.71 36.93 88.88 36.75 85.09 37.23 C 81.02 37.82 77.74 40.53 74.51 42.86 C 77.26 45.72 80.41 48.16 83.86 50.12 C 86.73 48.19 89.56 46.18 92.18 43.91 C 87.69 42.95 82.60 44.20 78.59 41.55 C 83.50 40.97 88.41 41.61 93.31 41.92 C 97.46 42.33 101.24 40.31 104.96 38.79 C 102.33 32.13 97.57 26.56 95.22 19.78 C 100.87 24.71 102.70 32.35 107.18 38.15 C 109.31 38.52 111.46 38.14 113.59 37.99 C 112.67 35.85 111.46 33.85 110.01 32.03 C 107.20 28.55 106.45 23.86 103.50 20.48 C 100.52 17.08 96.41 15.03 92.47 12.99 M 2.29 15.88 C 2.21 19.49 2.23 23.11 2.34 26.72 C 7.15 29.30 12.44 30.70 17.58 32.49 C 12.84 35.30 7.14 35.67 2.33 38.36 C 2.27 40.18 2.21 42.00 2.15 43.82 C 11.71 41.66 20.70 37.65 29.94 34.46 C 21.42 27.32 11.97 21.31 2.29 15.88 M 133.88 24.07 C 134.00 25.46 134.12 26.86 134.24 28.25 C 135.67 26.66 137.01 24.99 138.27 23.25 C 136.80 23.52 135.34 23.79 133.88 24.07 M 2.08 29.37 C 2.17 31.24 2.26 33.12 2.35 34.99 C 4.54 34.19 6.73 33.39 8.92 32.58 C 6.63 31.54 4.34 30.48 2.08 29.37 M 132.91 45.44 C 138.54 48.78 144.11 52.34 150.31 54.56 C 150.41 51.75 150.44 48.94 150.42 46.13 C 148.15 44.96 145.90 43.77 143.68 42.53 C 145.85 40.69 148.17 39.03 150.58 37.52 C 150.71 35.01 150.81 32.50 150.88 29.99 C 144.44 34.53 137.78 39.15 132.91 45.44 M 149.25 41.07 L 148.90 41.90 L 149.24 42.73 L 150.07 43.08 L 150.90 42.75 L 151.25 41.92 L 150.91 41.08 L 150.08 40.73 L 149.25 41.07 M 91.28 55.21 C 87.97 56.77 85.49 60.01 84.87 63.62 C 83.94 68.78 84.15 74.05 84.13 79.27 C 89.49 76.34 94.73 73.18 99.83 69.81 C 102.93 67.88 104.84 64.68 106.56 61.56 C 106.99 61.43 107.86 61.17 108.29 61.04 C 108.78 64.46 109.39 67.88 110.23 71.24 C 112.33 67.63 113.92 63.76 115.26 59.81 C 110.33 59.86 105.37 59.18 100.45 59.60 C 95.26 63.54 91.67 69.22 88.32 74.73 C 88.08 74.43 87.60 73.85 87.36 73.55 C 90.10 67.53 94.88 62.89 99.09 57.91 C 96.57 56.85 94.10 55.14 91.28 55.21 M 35.75 88.72 C 33.66 90.24 31.45 91.83 30.27 94.20 C 28.82 97.06 27.64 100.04 26.14 102.88 C 22.12 98.90 18.88 94.12 14.30 90.72 C 10.77 88.04 6.73 86.17 2.69 84.40 C 2.04 90.26 2.18 96.17 2.22 102.07 C 2.31 104.75 2.25 107.75 4.06 109.94 C 7.16 113.85 12.58 114.84 15.64 118.83 C 11.19 119.33 6.71 119.38 2.24 119.35 C 2.24 121.88 2.24 124.41 2.25 126.95 C 10.40 126.64 18.48 125.01 26.06 122.00 C 23.06 116.17 19.40 110.73 15.67 105.36 C 12.50 100.75 8.40 96.78 5.91 91.71 C 10.73 95.05 13.70 100.21 17.18 104.79 C 20.88 109.72 23.83 115.13 27.17 120.29 C 31.22 113.77 34.38 106.75 38.01 100.00 C 40.52 95.15 42.47 89.91 46.14 85.75 C 44.78 91.57 41.70 96.74 39.06 102.04 C 35.74 108.67 31.90 115.04 28.88 121.83 C 40.19 122.34 51.52 122.21 62.80 123.27 C 62.78 123.65 62.74 124.40 62.72 124.78 C 55.75 124.70 48.76 124.73 41.80 124.17 C 37.44 123.81 33.06 123.67 28.69 123.80 C 29.75 133.86 33.68 143.58 33.23 153.77 C 31.61 150.00 30.78 145.97 30.27 141.91 C 29.48 135.86 28.10 129.92 26.62 124.01 C 23.29 124.72 20.01 125.64 16.72 126.52 C 11.97 127.80 7.03 128.08 2.15 128.49 C 2.25 130.85 2.35 133.21 2.44 135.57 C 9.02 136.78 15.18 133.98 21.50 132.74 C 21.84 137.75 21.57 142.95 23.26 147.75 C 25.58 153.24 30.36 157.09 34.79 160.86 C 37.16 156.00 40.31 151.36 41.30 145.96 C 42.22 140.70 39.17 136.02 37.01 131.50 C 42.60 131.59 47.69 134.32 53.23 134.74 C 55.56 134.97 57.73 133.87 59.66 132.71 C 63.75 130.19 67.36 127.00 70.91 123.79 C 66.83 120.55 62.73 117.25 58.08 114.86 C 52.73 112.12 46.52 113.37 40.76 113.01 C 43.42 108.36 47.31 104.40 49.11 99.29 C 51.01 92.93 50.46 86.17 49.90 79.65 C 44.92 82.24 40.35 85.52 35.75 88.72 M 2.07 111.81 C 2.06 113.50 2.07 115.19 2.09 116.87 C 3.82 116.76 5.56 116.64 7.29 116.51 C 5.59 114.90 3.84 113.34 2.07 111.81 M 114.65 151.94 C 112.90 158.54 110.51 165.08 110.23 171.96 C 110.01 176.37 111.01 180.70 112.00 184.97 C 105.66 185.15 99.31 184.10 93.00 184.85 C 86.59 186.12 80.65 189.04 74.86 191.95 C 79.26 196.01 83.89 199.93 89.17 202.83 C 92.60 204.71 96.73 205.27 100.53 204.30 C 104.41 203.31 108.13 201.77 112.03 200.84 C 110.54 205.23 108.28 209.32 106.74 213.69 C 104.71 219.62 105.75 225.99 107.04 231.96 C 112.39 228.91 117.47 225.15 121.14 220.15 C 124.56 215.46 125.87 209.70 128.33 204.53 C 130.29 208.17 131.03 212.34 133.05 215.94 C 136.07 220.65 141.85 222.03 146.97 223.10 C 147.21 217.54 148.04 211.84 146.66 206.36 C 145.16 201.93 141.98 198.36 139.70 194.33 C 143.25 192.78 147.13 191.70 150.21 189.26 C 151.36 185.97 150.72 182.39 150.72 178.98 C 142.84 184.12 134.69 188.83 126.89 194.09 C 132.35 202.25 140.70 208.62 143.88 218.17 C 141.86 216.16 140.07 213.93 138.47 211.57 C 134.61 205.89 130.05 200.70 125.21 195.83 C 121.31 203.87 117.67 212.04 114.15 220.26 C 113.08 222.79 111.58 225.11 109.88 227.26 C 110.72 223.07 112.46 219.15 114.36 215.35 C 117.50 208.59 120.77 201.88 123.39 194.89 C 115.94 194.14 108.44 194.12 100.97 193.69 C 94.49 193.19 88.02 195.32 81.59 193.90 C 83.91 192.98 86.35 192.30 88.87 192.25 C 100.61 191.76 112.35 192.55 124.08 192.97 C 122.37 183.23 119.52 173.72 116.75 164.24 C 116.11 161.96 115.75 159.62 115.46 157.28 C 118.76 161.91 119.41 167.69 121.14 172.97 C 123.12 179.23 124.54 185.63 125.59 192.11 C 128.59 190.71 131.51 189.15 134.27 187.32 C 139.70 183.70 145.37 180.45 150.73 176.72 C 150.77 174.15 150.83 171.58 150.87 169.01 C 147.86 169.12 144.69 168.82 141.83 169.97 C 137.86 171.78 135.41 175.62 131.91 178.07 C 131.51 178.05 130.71 177.99 130.31 177.97 C 129.65 174.80 129.64 171.49 128.58 168.42 C 127.44 165.48 125.26 163.13 123.28 160.75 C 120.63 157.59 117.83 154.56 114.65 151.94 M 56.86 194.06 C 56.51 198.03 57.31 201.97 57.93 205.87 C 53.35 205.16 48.68 204.11 44.03 204.92 C 40.15 205.57 36.77 207.71 33.50 209.76 C 36.67 213.75 39.57 218.51 44.51 220.49 C 48.46 221.81 52.71 221.09 56.80 221.20 C 54.44 224.05 51.66 226.53 49.45 229.50 C 47.46 232.16 47.43 235.60 47.07 238.76 C 48.24 238.69 49.41 238.62 50.58 238.55 C 52.53 235.52 54.52 232.52 56.75 229.68 C 60.76 224.45 65.70 220.05 69.96 215.03 C 62.83 214.11 55.65 213.77 48.49 213.28 C 45.45 213.04 42.15 213.19 39.54 211.34 C 50.09 211.04 60.51 213.38 71.06 213.29 C 70.06 208.01 68.93 202.76 67.72 197.53 C 66.60 192.58 64.74 187.80 64.21 182.72 C 65.32 183.95 66.50 185.22 66.91 186.88 C 69.40 195.44 71.02 204.23 72.52 213.01 C 82.31 211.87 92.04 210.29 101.86 209.30 C 101.71 209.78 101.42 210.73 101.27 211.21 C 92.06 212.48 82.75 213.03 73.65 214.99 C 74.85 220.66 76.62 226.19 78.07 231.80 C 78.68 234.04 78.67 236.38 78.49 238.68 C 75.57 231.38 74.82 223.42 71.86 216.13 C 69.12 218.62 66.47 221.22 64.01 223.99 C 59.92 228.61 55.49 233.10 52.79 238.73 C 55.33 238.71 57.94 238.95 60.43 238.32 C 63.74 235.88 65.25 231.79 67.38 228.40 C 67.93 228.30 69.04 228.10 69.59 227.99 C 70.17 231.42 69.66 235.40 71.66 238.38 C 75.41 238.94 79.46 239.31 83.10 238.07 C 86.75 232.92 83.93 226.61 82.89 221.10 C 86.92 221.47 90.95 222.09 95.00 221.81 C 98.56 221.67 101.33 218.82 102.84 215.81 C 104.55 212.29 105.86 208.60 107.58 205.09 C 101.90 206.81 95.49 208.78 89.82 205.99 C 86.60 204.34 83.16 203.03 79.47 203.49 C 79.09 201.91 78.92 200.26 78.18 198.80 C 75.89 196.17 72.94 194.23 70.36 191.90 C 72.28 190.41 74.23 188.97 76.19 187.53 C 72.63 182.99 67.77 179.83 62.82 177.01 C 59.79 182.25 57.44 187.99 56.86 194.06 M 143.38 195.41 C 145.20 198.02 147.14 200.57 148.61 203.41 C 150.35 206.64 150.10 210.44 150.03 213.99 C 149.83 217.84 149.92 221.70 150.24 225.54 C 144.51 226.19 138.61 224.43 134.07 220.90 C 131.26 218.72 129.76 215.41 128.30 212.27 C 126.17 217.18 123.94 222.27 119.88 225.91 C 115.44 229.88 110.59 233.40 105.34 236.22 C 103.70 231.34 103.03 226.21 102.85 221.09 C 100.33 222.55 97.84 224.25 94.92 224.76 C 92.32 225.15 89.69 224.98 87.08 224.93 C 88.05 229.54 87.84 234.28 86.16 238.70 C 107.69 238.66 129.22 238.67 150.75 238.70 C 150.79 223.44 150.84 208.18 150.79 192.92 C 148.32 193.75 145.86 194.60 143.38 195.41 M 64.45 238.87 C 65.93 238.94 67.41 239.02 68.89 239.10 C 68.43 237.35 67.99 235.60 67.55 233.85 C 66.52 235.53 65.49 237.19 64.45 238.87 Z" />
</g>
<g id="#652d1aff">
<path fill="#652d1a" opacity="1.00" d=" M 32.51 0.00 L 44.37 0.00 C 40.48 1.25 36.40 1.23 32.51 0.00 Z" />
</g>
<g id="#757575ff">
<path fill="#757575" opacity="1.00" d=" M 46.70 0.00 L 116.86 0.00 L 115.86 0.87 C 109.26 1.52 102.62 1.29 96.00 1.33 C 83.66 1.35 71.33 1.22 58.99 1.44 C 54.84 1.53 50.75 0.81 46.70 0.00 Z" />
</g>
<g id="#777777ff">
<path fill="#777777" opacity="1.00" d=" M 116.86 0.00 L 152.00 0.00 L 152.00 1.12 C 139.96 1.37 127.89 1.66 115.86 0.87 L 116.86 0.00 Z" />
</g>
<g id="#ffffffff">
<path fill="#ffffff" opacity="1.00" d=" M 2.14 2.10 C 10.64 1.58 19.16 2.00 27.67 1.83 C 25.68 5.87 24.28 10.17 23.52 14.61 C 20.24 12.17 16.99 9.63 13.31 7.81 C 9.88 6.09 5.99 5.82 2.24 5.44 C 2.21 4.33 2.18 3.21 2.14 2.10 Z" />
<path fill="#ffffff" opacity="1.00" d=" M 48.16 1.87 C 70.09 2.02 92.03 1.61 113.95 2.07 C 113.03 11.06 110.17 19.85 110.71 28.96 C 109.20 24.41 107.41 19.58 103.45 16.57 C 99.46 13.50 95.10 10.88 90.45 8.91 C 89.48 17.15 87.44 26.23 91.70 33.91 C 87.69 34.17 83.40 33.91 79.78 35.95 C 76.40 37.79 73.28 40.08 70.09 42.23 C 74.60 47.51 80.54 51.40 86.80 54.31 C 84.86 56.94 82.60 59.59 82.20 62.97 C 81.26 69.72 81.41 76.59 81.69 83.39 C 90.78 79.64 98.94 73.84 106.38 67.47 C 107.57 70.19 109.13 72.74 110.09 75.55 C 110.74 78.33 110.64 81.23 111.01 84.06 C 111.49 88.94 113.14 93.59 114.78 98.18 C 119.02 96.11 121.37 91.83 124.73 88.72 C 127.10 86.38 130.09 84.64 131.95 81.81 C 134.03 78.83 136.17 75.75 137.14 72.19 C 138.04 68.89 138.41 65.48 138.94 62.11 C 142.47 64.62 146.45 66.41 150.70 67.26 C 150.90 100.19 150.75 133.12 150.78 166.05 C 147.57 166.36 144.22 166.16 141.18 167.38 C 137.89 168.89 135.23 171.39 132.51 173.71 C 131.92 170.48 131.58 167.03 129.68 164.25 C 127.80 161.54 125.40 159.25 123.21 156.80 C 119.92 153.28 117.08 149.18 112.78 146.79 C 111.47 152.17 110.11 157.54 108.78 162.92 C 107.28 169.20 107.49 175.72 108.22 182.09 C 101.84 182.07 95.22 180.84 89.05 183.03 C 85.79 184.01 82.72 185.73 79.30 186.11 C 73.65 181.24 68.00 175.78 60.51 173.96 C 58.86 178.15 57.10 182.31 55.72 186.60 C 54.08 191.70 54.00 197.11 54.04 202.41 C 50.42 202.31 46.76 201.85 43.14 202.36 C 38.06 203.25 33.55 206.00 29.48 209.05 C 32.19 212.78 35.01 216.48 38.49 219.54 C 41.65 222.29 45.94 222.95 49.85 224.05 C 46.60 228.27 44.42 233.26 44.34 238.65 C 30.32 238.73 16.29 238.65 2.27 238.70 C 2.18 205.24 2.29 171.79 2.21 138.34 C 7.80 138.63 13.35 137.83 18.77 136.55 C 19.34 141.71 19.31 147.27 22.13 151.84 C 25.52 157.40 30.83 161.37 36.16 164.91 C 37.85 161.35 39.45 157.75 41.19 154.22 C 42.56 151.29 44.08 148.27 44.12 144.96 C 44.14 141.86 43.46 138.82 43.00 135.77 C 46.58 136.67 50.18 137.84 53.91 137.74 C 57.00 137.58 59.72 135.89 62.22 134.22 C 66.80 131.02 71.17 127.46 74.76 123.16 C 70.03 119.57 65.34 115.85 60.13 112.96 C 55.99 110.60 51.13 110.36 46.51 109.83 C 48.73 105.61 51.65 101.58 52.46 96.78 C 53.62 89.80 53.06 82.67 52.43 75.66 C 47.28 77.27 43.08 80.75 38.59 83.59 C 35.99 85.29 33.27 86.86 30.96 88.95 C 28.37 91.34 26.83 94.56 25.08 97.55 C 21.55 93.90 18.42 89.72 14.03 87.02 C 10.36 84.75 6.35 83.14 2.38 81.48 C 2.08 72.18 2.26 62.87 2.27 53.56 C 6.57 53.52 10.82 52.82 14.98 51.76 C 13.37 56.96 11.57 62.35 12.37 67.88 C 12.83 72.44 14.89 76.62 17.24 80.50 C 21.03 77.55 24.03 73.78 27.43 70.43 C 29.41 68.41 31.45 66.42 33.02 64.06 C 34.57 61.76 35.01 58.96 35.58 56.30 C 39.57 62.83 46.64 66.64 53.96 68.20 C 54.38 62.80 54.76 57.35 54.27 51.94 C 53.98 48.42 52.29 45.27 50.76 42.15 C 55.02 41.65 59.44 41.37 63.37 39.50 C 68.19 37.24 71.89 33.27 75.33 29.32 C 77.75 26.55 79.79 23.46 81.45 20.18 C 75.20 18.84 68.86 18.01 62.59 16.77 C 57.34 15.72 51.97 16.25 46.70 16.86 C 47.95 11.97 48.40 6.91 48.16 1.87 Z" />
<path fill="#ffffff" opacity="1.00" d=" M 117.80 1.98 C 128.79 1.81 139.79 1.79 150.78 1.99 C 150.84 7.98 150.85 13.96 150.73 19.94 C 144.70 21.39 138.49 21.46 132.35 20.74 C 128.16 13.99 122.50 8.35 117.80 1.98 Z" />
<path fill="#ffffff" opacity="1.00" d=" M 2.08 29.37 C 4.34 30.48 6.63 31.54 8.92 32.58 C 6.73 33.39 4.54 34.19 2.35 34.99 C 2.26 33.12 2.17 31.24 2.08 29.37 Z" />
<path fill="#ffffff" opacity="1.00" d=" M 143.38 195.41 C 145.86 194.60 148.32 193.75 150.79 192.92 C 150.84 208.18 150.79 223.44 150.75 238.70 C 129.22 238.67 107.69 238.66 86.16 238.70 C 87.84 234.28 88.05 229.54 87.08 224.93 C 89.69 224.98 92.32 225.15 94.92 224.76 C 97.84 224.25 100.33 222.55 102.85 221.09 C 103.03 226.21 103.70 231.34 105.34 236.22 C 110.59 233.40 115.44 229.88 119.88 225.91 C 123.94 222.27 126.17 217.18 128.30 212.27 C 129.76 215.41 131.26 218.72 134.07 220.90 C 138.61 224.43 144.51 226.19 150.24 225.54 C 149.92 221.70 149.83 217.84 150.03 213.99 C 150.10 210.44 150.35 206.64 148.61 203.41 C 147.14 200.57 145.20 198.02 143.38 195.41 Z" />
</g>
<g id="#d96038ff">
<path fill="#d96038" opacity="1.00" d=" M 31.03 1.90 C 33.31 1.88 35.60 1.86 37.88 1.83 C 35.65 12.17 33.64 22.57 30.90 32.79 C 21.73 25.87 12.05 19.70 2.29 13.66 C 2.28 11.80 2.27 9.94 2.27 8.08 C 5.51 8.44 8.84 8.75 11.83 10.14 C 16.70 12.32 20.72 15.89 24.93 19.09 C 26.45 13.20 27.32 6.93 31.03 1.90 Z" />
<path fill="#d96038" opacity="1.00" d=" M 39.89 1.74 C 41.60 1.85 43.32 1.96 45.04 2.06 C 45.29 5.28 45.77 8.58 44.89 11.74 C 44.07 14.90 42.82 17.91 41.80 21.00 C 47.67 19.94 53.62 18.65 59.62 19.31 C 65.46 19.95 71.24 21.03 77.01 22.13 C 73.21 27.79 68.88 33.43 62.81 36.79 C 57.30 39.71 50.84 38.88 44.84 39.35 C 47.42 43.38 51.25 47.06 51.59 52.10 C 51.99 56.38 51.74 60.68 51.63 64.97 C 46.84 63.01 41.60 60.84 38.80 56.22 C 36.86 53.10 37.52 48.22 33.65 46.57 C 33.33 50.31 33.37 54.08 32.66 57.78 C 32.08 60.95 29.87 63.45 27.80 65.79 C 24.61 69.30 21.38 72.79 17.98 76.11 C 16.32 72.64 14.78 68.95 14.92 65.02 C 14.76 58.18 18.58 52.24 20.28 45.81 C 17.20 47.07 14.28 48.69 11.21 49.97 C 8.35 51.22 5.17 50.90 2.14 50.88 C 2.21 49.05 2.27 47.22 2.34 45.38 C 11.71 42.87 20.90 39.77 29.89 36.12 C 26.33 47.49 20.88 58.41 19.39 70.33 C 20.56 68.80 21.62 67.16 22.05 65.26 C 24.58 55.47 27.81 45.84 31.95 36.62 C 36.61 41.88 40.74 47.61 44.16 53.76 C 45.48 56.17 47.13 58.37 49.06 60.33 C 45.80 50.83 38.87 43.25 33.23 35.12 C 40.38 33.53 47.64 32.36 54.74 30.53 C 60.38 29.03 66.20 27.99 71.51 25.49 C 66.26 25.18 61.36 27.32 56.31 28.39 C 48.56 30.07 40.86 32.02 33.01 33.15 C 34.96 22.61 37.10 12.09 39.89 1.74 Z" />
<path fill="#d96038" opacity="1.00" d=" M 2.29 15.88 C 11.97 21.31 21.42 27.32 29.94 34.46 C 20.70 37.65 11.71 41.66 2.15 43.82 C 2.21 42.00 2.27 40.18 2.33 38.36 C 7.14 35.67 12.84 35.30 17.58 32.49 C 12.44 30.70 7.15 29.30 2.34 26.72 C 2.23 23.11 2.21 19.49 2.29 15.88 Z" />
<path fill="#d96038" opacity="1.00" d=" M 114.65 151.94 C 117.83 154.56 120.63 157.59 123.28 160.75 C 125.26 163.13 127.44 165.48 128.58 168.42 C 129.64 171.49 129.65 174.80 130.31 177.97 C 130.71 177.99 131.51 178.05 131.91 178.07 C 135.41 175.62 137.86 171.78 141.83 169.97 C 144.69 168.82 147.86 169.12 150.87 169.01 C 150.83 171.58 150.77 174.15 150.73 176.72 C 145.37 180.45 139.70 183.70 134.27 187.32 C 131.51 189.15 128.59 190.71 125.59 192.11 C 124.54 185.63 123.12 179.23 121.14 172.97 C 119.41 167.69 118.76 161.91 115.46 157.28 C 115.75 159.62 116.11 161.96 116.75 164.24 C 119.52 173.72 122.37 183.23 124.08 192.97 C 112.35 192.55 100.61 191.76 88.87 192.25 C 86.35 192.30 83.91 192.98 81.59 193.90 C 88.02 195.32 94.49 193.19 100.97 193.69 C 108.44 194.12 115.94 194.14 123.39 194.89 C 120.77 201.88 117.50 208.59 114.36 215.35 C 112.46 219.15 110.72 223.07 109.88 227.26 C 111.58 225.11 113.08 222.79 114.15 220.26 C 117.67 212.04 121.31 203.87 125.21 195.83 C 130.05 200.70 134.61 205.89 138.47 211.57 C 140.07 213.93 141.86 216.16 143.88 218.17 C 140.70 208.62 132.35 202.25 126.89 194.09 C 134.69 188.83 142.84 184.12 150.72 178.98 C 150.72 182.39 151.36 185.97 150.21 189.26 C 147.13 191.70 143.25 192.78 139.70 194.33 C 141.98 198.36 145.16 201.93 146.66 206.36 C 148.04 211.84 147.21 217.54 146.97 223.10 C 141.85 222.03 136.07 220.65 133.05 215.94 C 131.03 212.34 130.29 208.17 128.33 204.53 C 125.87 209.70 124.56 215.46 121.14 220.15 C 117.47 225.15 112.39 228.91 107.04 231.96 C 105.75 225.99 104.71 219.62 106.74 213.69 C 108.28 209.32 110.54 205.23 112.03 200.84 C 108.13 201.77 104.41 203.31 100.53 204.30 C 96.73 205.27 92.60 204.71 89.17 202.83 C 83.89 199.93 79.26 196.01 74.86 191.95 C 80.65 189.04 86.59 186.12 93.00 184.85 C 99.31 184.10 105.66 185.15 112.00 184.97 C 111.01 180.70 110.01 176.37 110.23 171.96 C 110.51 165.08 112.90 158.54 114.65 151.94 Z" />
</g>
<g id="#858585ff">
<path fill="#858585" opacity="1.00" d=" M 116.26 5.07 C 120.45 9.48 124.33 14.16 127.97 19.02 C 130.93 22.86 131.80 27.72 132.80 32.33 C 137.21 30.92 138.81 25.83 142.99 24.06 C 145.58 23.06 148.41 23.16 151.14 22.99 C 150.89 24.47 150.72 25.97 150.28 27.41 C 149.10 29.18 147.29 30.38 145.67 31.71 C 140.68 35.48 136.22 39.90 131.33 43.79 C 129.23 39.14 127.10 34.49 125.21 29.75 C 123.19 24.77 122.08 19.40 119.10 14.85 C 120.31 25.34 125.94 34.56 129.58 44.30 C 123.36 46.01 116.94 46.73 110.58 47.70 C 106.19 48.38 101.51 48.36 97.59 50.72 C 108.38 51.13 118.80 47.78 129.46 46.69 C 128.79 54.69 126.35 62.38 124.02 70.02 C 122.32 75.53 119.69 80.71 118.39 86.34 C 120.18 84.33 121.65 82.04 122.50 79.47 C 126.29 68.87 129.60 58.06 131.55 46.95 C 138.21 49.88 144.25 53.99 150.67 57.39 C 150.72 59.68 150.77 61.97 150.79 64.26 C 148.69 63.82 146.37 63.73 144.61 62.37 C 141.98 60.41 139.46 58.29 136.61 56.66 C 135.88 61.58 135.75 66.61 134.52 71.45 C 133.58 75.31 130.84 78.34 128.21 81.18 C 124.20 85.40 120.29 89.71 116.15 93.80 C 113.54 86.48 112.15 78.42 113.96 70.75 C 115.52 65.41 118.67 60.71 120.30 55.39 C 115.07 56.47 109.61 58.34 104.28 56.72 C 98.99 55.18 94.12 52.52 89.32 49.89 C 93.96 46.30 99.16 43.31 104.85 41.78 C 108.82 40.73 112.96 40.69 117.04 40.47 C 115.93 36.82 114.52 33.26 113.69 29.53 C 112.97 26.34 113.40 23.06 113.86 19.87 C 114.62 14.93 115.39 9.99 116.26 5.07 Z" />
<path fill="#858585" opacity="1.00" d=" M 132.91 45.44 C 137.78 39.15 144.44 34.53 150.88 29.99 C 150.81 32.50 150.71 35.01 150.58 37.52 C 148.17 39.03 145.85 40.69 143.68 42.53 C 145.90 43.77 148.15 44.96 150.42 46.13 C 150.44 48.94 150.41 51.75 150.31 54.56 C 144.11 52.34 138.54 48.78 132.91 45.44 Z" />
<path fill="#858585" opacity="1.00" d=" M 35.75 88.72 C 40.35 85.52 44.92 82.24 49.90 79.65 C 50.46 86.17 51.01 92.93 49.11 99.29 C 47.31 104.40 43.42 108.36 40.76 113.01 C 46.52 113.37 52.73 112.12 58.08 114.86 C 62.73 117.25 66.83 120.55 70.91 123.79 C 67.36 127.00 63.75 130.19 59.66 132.71 C 57.73 133.87 55.56 134.97 53.23 134.74 C 47.69 134.32 42.60 131.59 37.01 131.50 C 39.17 136.02 42.22 140.70 41.30 145.96 C 40.31 151.36 37.16 156.00 34.79 160.86 C 30.36 157.09 25.58 153.24 23.26 147.75 C 21.57 142.95 21.84 137.75 21.50 132.74 C 15.18 133.98 9.02 136.78 2.44 135.57 C 2.35 133.21 2.25 130.85 2.15 128.49 C 7.03 128.08 11.97 127.80 16.72 126.52 C 20.01 125.64 23.29 124.72 26.62 124.01 C 28.10 129.92 29.48 135.86 30.27 141.91 C 30.78 145.97 31.61 150.00 33.23 153.77 C 33.68 143.58 29.75 133.86 28.69 123.80 C 33.06 123.67 37.44 123.81 41.80 124.17 C 48.76 124.73 55.75 124.70 62.72 124.78 C 62.74 124.40 62.78 123.65 62.80 123.27 C 51.52 122.21 40.19 122.34 28.88 121.83 C 31.90 115.04 35.74 108.67 39.06 102.04 C 41.70 96.74 44.78 91.57 46.14 85.75 C 42.47 89.91 40.52 95.15 38.01 100.00 C 34.38 106.75 31.22 113.77 27.17 120.29 C 23.83 115.13 20.88 109.72 17.18 104.79 C 13.70 100.21 10.73 95.05 5.91 91.71 C 8.40 96.78 12.50 100.75 15.67 105.36 C 19.40 110.73 23.06 116.17 26.06 122.00 C 18.48 125.01 10.40 126.64 2.25 126.95 C 2.24 124.41 2.24 121.88 2.24 119.35 C 6.71 119.38 11.19 119.33 15.64 118.83 C 12.58 114.84 7.16 113.85 4.06 109.94 C 2.25 107.75 2.31 104.75 2.22 102.07 C 2.18 96.17 2.04 90.26 2.69 84.40 C 6.73 86.17 10.77 88.04 14.30 90.72 C 18.88 94.12 22.12 98.90 26.14 102.88 C 27.64 100.04 28.82 97.06 30.27 94.20 C 31.45 91.83 33.66 90.24 35.75 88.72 Z" />
</g>
<g id="#b95230ff">
<path fill="#b95230" opacity="1.00" d=" M 0.00 8.63 C 2.33 8.64 2.35 12.29 0.00 12.27 L 0.00 8.63 Z" />
</g>
<g id="#ffe000ff">
<path fill="#ffe000" opacity="1.00" d=" M 92.47 12.99 C 96.41 15.03 100.52 17.08 103.50 20.48 C 106.45 23.86 107.20 28.55 110.01 32.03 C 111.46 33.85 112.67 35.85 113.59 37.99 C 111.46 38.14 109.31 38.52 107.18 38.15 C 102.70 32.35 100.87 24.71 95.22 19.78 C 97.57 26.56 102.33 32.13 104.96 38.79 C 101.24 40.31 97.46 42.33 93.31 41.92 C 88.41 41.61 83.50 40.97 78.59 41.55 C 82.60 44.20 87.69 42.95 92.18 43.91 C 89.56 46.18 86.73 48.19 83.86 50.12 C 80.41 48.16 77.26 45.72 74.51 42.86 C 77.74 40.53 81.02 37.82 85.09 37.23 C 88.88 36.75 92.71 36.93 96.51 36.79 C 94.97 33.57 92.74 30.58 92.06 27.02 C 91.51 22.35 92.16 17.65 92.47 12.99 Z" />
<path fill="#ffe000" opacity="1.00" d=" M 91.28 55.21 C 94.10 55.14 96.57 56.85 99.09 57.91 C 94.88 62.89 90.10 67.53 87.36 73.55 C 87.60 73.85 88.08 74.43 88.32 74.73 C 91.67 69.22 95.26 63.54 100.45 59.60 C 105.37 59.18 110.33 59.86 115.26 59.81 C 113.92 63.76 112.33 67.63 110.23 71.24 C 109.39 67.88 108.78 64.46 108.29 61.04 C 107.86 61.17 106.99 61.43 106.56 61.56 C 104.84 64.68 102.93 67.88 99.83 69.81 C 94.73 73.18 89.49 76.34 84.13 79.27 C 84.15 74.05 83.94 68.78 84.87 63.62 C 85.49 60.01 87.97 56.77 91.28 55.21 Z" />
<path fill="#ffe000" opacity="1.00" d=" M 56.86 194.06 C 57.44 187.99 59.79 182.25 62.82 177.01 C 67.77 179.83 72.63 182.99 76.19 187.53 C 74.23 188.97 72.28 190.41 70.36 191.90 C 72.94 194.23 75.89 196.17 78.18 198.80 C 78.92 200.26 79.09 201.91 79.47 203.49 C 83.16 203.03 86.60 204.34 89.82 205.99 C 95.49 208.78 101.90 206.81 107.58 205.09 C 105.86 208.60 104.55 212.29 102.84 215.81 C 101.33 218.82 98.56 221.67 95.00 221.81 C 90.95 222.09 86.92 221.47 82.89 221.10 C 83.93 226.61 86.75 232.92 83.10 238.07 C 79.46 239.31 75.41 238.94 71.66 238.38 C 69.66 235.40 70.17 231.42 69.59 227.99 C 69.04 228.10 67.93 228.30 67.38 228.40 C 65.25 231.79 63.74 235.88 60.43 238.32 C 57.94 238.95 55.33 238.71 52.79 238.73 C 55.49 233.10 59.92 228.61 64.01 223.99 C 66.47 221.22 69.12 218.62 71.86 216.13 C 74.82 223.42 75.57 231.38 78.49 238.68 C 78.67 236.38 78.68 234.04 78.07 231.80 C 76.62 226.19 74.85 220.66 73.65 214.99 C 82.75 213.03 92.06 212.48 101.27 211.21 C 101.42 210.73 101.71 209.78 101.86 209.30 C 92.04 210.29 82.31 211.87 72.52 213.01 C 71.02 204.23 69.40 195.44 66.91 186.88 C 66.50 185.22 65.32 183.95 64.21 182.72 C 64.74 187.80 66.60 192.58 67.72 197.53 C 68.93 202.76 70.06 208.01 71.06 213.29 C 60.51 213.38 50.09 211.04 39.54 211.34 C 42.15 213.19 45.45 213.04 48.49 213.28 C 55.65 213.77 62.83 214.11 69.96 215.03 C 65.70 220.05 60.76 224.45 56.75 229.68 C 54.52 232.52 52.53 235.52 50.58 238.55 C 49.41 238.62 48.24 238.69 47.07 238.76 C 47.43 235.60 47.46 232.16 49.45 229.50 C 51.66 226.53 54.44 224.05 56.80 221.20 C 52.71 221.09 48.46 221.81 44.51 220.49 C 39.57 218.51 36.67 213.75 33.50 209.76 C 36.77 207.71 40.15 205.57 44.03 204.92 C 48.68 204.11 53.35 205.16 57.93 205.87 C 57.31 201.97 56.51 198.03 56.86 194.06 Z" />
</g>
<g id="#c55733ff">
<path fill="#c55733" opacity="1.00" d=" M 0.00 13.30 C 0.77 17.27 0.80 21.34 0.00 25.31 L 0.00 13.30 Z" />
</g>
<g id="#a18e00ff">
<path fill="#a18e00" opacity="1.00" d=" M 133.88 24.07 C 135.34 23.79 136.80 23.52 138.27 23.25 C 137.01 24.99 135.67 26.66 134.24 28.25 C 134.12 26.86 134.00 25.46 133.88 24.07 Z" />
</g>
<g id="#d8d8d8ff">
<path fill="#d8d8d8" opacity="1.00" d=" M 0.00 27.67 C 0.67 30.83 0.67 34.06 0.00 37.22 L 0.00 27.67 Z" />
</g>
<g id="#aa4b2cff">
<path fill="#aa4b2c" opacity="1.00" d=" M 0.00 38.81 C 0.64 42.61 0.62 46.47 0.00 50.28 L 0.00 38.81 Z" />
</g>
<g id="#888888ff">
<path fill="#888888" opacity="1.00" d=" M 149.25 41.07 L 150.08 40.73 L 150.91 41.08 L 151.25 41.92 L 150.90 42.75 L 150.07 43.08 L 149.24 42.73 L 148.90 41.90 L 149.25 41.07 Z" />
</g>
<g id="#fafafaff">
<path fill="#fafafa" opacity="1.00" d=" M 0.00 52.54 C 1.64 62.20 1.53 72.17 0.00 81.83 L 0.00 52.54 Z" />
</g>
<g id="#eaeaeaff">
<path fill="#eaeaea" opacity="1.00" d=" M 0.00 108.20 C 0.60 111.39 0.63 114.65 0.00 117.84 L 0.00 108.20 Z" />
</g>
<g id="#acacacff">
<path fill="#acacac" opacity="1.00" d=" M 2.07 111.81 C 3.84 113.34 5.59 114.90 7.29 116.51 C 5.56 116.64 3.82 116.76 2.09 116.87 C 2.07 115.19 2.06 113.50 2.07 111.81 Z" />
</g>
<g id="#828282ff">
<path fill="#828282" opacity="1.00" d=" M 0.00 120.73 C 2.23 121.99 2.26 125.40 0.00 126.65 L 0.00 120.73 Z" />
</g>
<g id="#6d6d6dff">
<path fill="#6d6d6d" opacity="1.00" d=" M 0.00 128.36 C 2.26 129.59 2.25 133.01 0.00 134.25 L 0.00 128.36 Z" />
</g>
<g id="#fbfbfbff">
<path fill="#fbfbfb" opacity="1.00" d=" M 0.00 136.19 C 1.56 144.03 0.94 152.05 1.00 160.00 C 1.01 186.66 0.98 213.33 1.01 240.00 L 0.00 240.00 L 0.00 136.19 Z" />
</g>
<g id="#a4a4a4ff">
<path fill="#a4a4a4" opacity="1.00" d=" M 64.45 238.87 C 65.49 237.19 66.52 235.53 67.55 233.85 C 67.99 235.60 68.43 237.35 68.89 239.10 C 67.41 239.02 65.93 238.94 64.45 238.87 Z" />
</g>
</svg>
